<svg width="150" height="150" viewBox="0 0 150 150" fill="none" xmlns="http://www.w3.org/2000/svg">
<circle cx="75" cy="75" r="75" fill="#6B6EFF"/>
<path d="M73.5 40C44.4154 40 22 54.8063 22 74.9857C22 95.1651 44.4197 109.971 73.5 109.971C102.58 109.971 125 95.1651 125 74.9857C125 54.8063 102.585 40 73.5 40ZM104.975 56.4757C104.975 61.1107 97.572 64.6857 85.7141 66.1148C84.5982 55.0423 81.401 47.7508 77.2895 45.0298C89.9414 45.8195 104.975 50.2957 104.975 56.4757ZM73.5 93.8733C69.38 93.8733 66.0067 87.4358 65.7407 75.0372C68.217 75.2389 70.8048 75.3462 73.5 75.3462C76.1952 75.3462 78.7787 75.2389 81.255 75.0372C80.9932 87.4401 77.62 93.8733 73.5 93.8733ZM73.5 66.8015C70.9679 66.8015 68.5431 66.7199 66.2471 66.5697C67.3672 59.1537 70.1954 53.051 73.5 53.051C76.8046 53.051 79.6285 59.1537 80.7486 66.5697C78.4526 66.7156 76.0321 66.8015 73.5 66.8015ZM69.7147 45.0213C65.6119 47.7379 62.3932 55.0337 61.2859 66.1148C49.428 64.6857 42.0206 61.1107 42.0206 56.4757C42.0206 50.2957 57.0586 45.7895 69.7147 45.0213ZM30.7421 73.6123C30.7313 68.7184 32.3096 63.9533 35.2398 60.0335C36.3985 66.6727 46.0634 72.3978 60.8696 74.4964V74.9857C60.8696 91.1738 64.642 101.607 69.8263 104.899C47.9088 103.521 30.7421 89.9636 30.7421 73.6123ZM77.1908 104.899C82.3709 101.607 86.1475 91.1738 86.1475 74.9857V74.4921C100.941 72.3978 110.627 66.6555 111.777 60.0292C114.711 63.9489 116.291 68.7162 116.279 73.6123C116.262 89.9636 99.0826 103.521 77.1908 104.899Z" fill="white"/>
</svg>
