<svg width="150" height="150" viewBox="0 0 150 150" fill="none" xmlns="http://www.w3.org/2000/svg">
<circle cx="75" cy="75" r="75" fill="#6B6EFF"/>
<path d="M73.5 105.081C41.1909 105.081 15 91.6333 15 75.0368C15 58.4482 41.1909 45 73.5 45C105.811 45 132 58.4482 132 75.0368C132 91.6333 105.811 105.081 73.5 105.081ZM52.0612 51.4945C33.0424 55.4354 19.7434 64.4629 19.7434 74.9647C19.7434 80.7801 23.8296 86.144 30.7024 90.4462C31.2747 90.7992 31.6486 90.8664 31.926 90.8489C32.4228 90.8196 32.7026 90.5086 32.9059 90.1371C33.0424 89.9007 33.2135 89.5399 33.3797 89.1777C35.6227 83.8962 43.508 65.6154 53.8659 53.2207C54.0541 52.9967 54.2249 52.7586 54.3768 52.5085C54.6011 52.099 54.5504 51.7709 54.3798 51.5725C54.0907 51.2571 53.2844 51.2556 52.0612 51.4945ZM62.4922 59.9258C56.7748 73.8156 67.5978 72.0943 70.5253 71.4488C75.4992 70.348 80.248 68.4614 84.0515 66.9394C94.8818 62.607 100.632 58.26 102.54 56.5898C102.721 56.4358 102.896 56.2751 103.064 56.1082C103.336 55.8254 103.54 55.5271 103.54 55.1322C103.54 54.6759 103.145 54.3098 102.383 54.0446C102.324 54.0207 102.131 53.9422 102.07 53.9227C93.7927 51.2829 83.9159 49.7482 73.3001 49.7482C73.2182 49.7482 73.0145 49.7375 72.7302 49.7482C71.4588 49.7863 70.0446 50.0719 68.8936 50.6686C65.1023 52.6425 63.4512 57.6077 62.4922 59.9258ZM114.095 59.9438C113.964 60.1812 113.796 60.5405 113.626 60.9061C111.384 66.1838 103.498 84.4573 93.1419 96.851C92.8908 97.1581 92.7538 97.3536 92.6339 97.5661C92.394 97.9786 92.4447 98.3145 92.6339 98.5095C92.9127 98.8219 93.7234 98.8283 94.9446 98.586C113.956 94.6372 127.256 85.6156 127.256 75.1134C127.256 69.2999 123.181 63.936 116.301 59.6377C115.735 59.2818 115.358 59.2131 115.082 59.233C114.581 59.2657 114.302 59.5738 114.095 59.9438ZM84.5078 90.1483C90.2261 76.2595 79.3973 77.9901 76.4801 78.6326C71.4988 79.7295 66.7496 81.621 62.9486 83.1371C52.1134 87.4676 46.3653 91.8244 44.4509 93.4887C44.2227 93.6973 44.0448 93.8504 43.9312 93.9738C43.6562 94.2531 43.4598 94.548 43.4598 94.9522C43.4598 95.4021 43.8498 95.7751 44.6112 96.0388C44.6697 96.0622 44.8603 96.1426 44.9315 96.1631C53.1995 98.7956 63.0763 100.335 73.694 100.335C73.7803 100.335 73.9826 100.342 74.2683 100.335C75.5402 100.295 76.9603 100.005 78.1054 99.4143C81.8987 97.4389 83.5503 92.4752 84.5078 90.1483Z" fill="white"/>
</svg>
