<svg width="150" height="150" viewBox="0 0 150 150" fill="none" xmlns="http://www.w3.org/2000/svg">
<circle cx="75" cy="75" r="75" fill="#6B6EFF"/>
<path d="M75 27C48.44 27 27 48.44 27 75C27 101.56 48.44 123 75 123C101.56 123 123 101.56 123 75C123 48.44 101.56 27 75 27ZM75 32.64C79.8 32.64 84.44 33.52 88.72 35L75.52 63.52C75.36 63.68 75.36 64.04 75 64.04C74.64 64.04 74.64 63.68 74.48 63.52L61.28 35C65.56 33.52 70.2 32.68 75 32.68M54.6 37.96L69.88 70.88C70.2 71.56 70.56 71.76 71 71.76H79C79.48 71.76 79.8 71.56 80.16 70.88L95.24 37.96C101.56 41.56 107 46.72 110.84 52.88L89.4 94.36C89.24 94.72 89 94.88 88.88 94.88C88.56 94.88 88.56 94.56 88.36 94.36L80.16 76.2C79.8 75.52 79.48 75.36 79 75.36H71C70.56 75.36 70.2 75.52 69.84 76.2L61.64 94.36C61.44 94.56 61.48 94.88 61.12 94.88C60.76 94.88 60.76 94.56 60.6 94.36L39 52.88C42.76 46.72 48.28 41.56 54.6 37.96ZM35.24 61.12L59.92 109.12C60.24 109.8 60.6 110.32 61.48 110.32C62.32 110.32 62.64 109.8 63 109.12L74.48 83.56C74.64 83.24 74.84 83 75 83C75.36 83 75.36 83.4 75.52 83.56L87.16 109.12C87.52 109.8 87.84 110.32 88.72 110.32C89.56 110.32 89.92 109.8 90.24 109.12L115 61.12C116.48 65.4 117.36 70.04 117.36 75C117.16 98.16 98.16 117.36 75 117.36C51.84 117.36 32.84 98.16 32.84 75C32.84 70.2 33.68 65.6 35.24 61.12Z" fill="white"/>
</svg>
