<svg width="150" height="150" viewBox="0 0 150 150" fill="none" xmlns="http://www.w3.org/2000/svg">
<circle cx="75" cy="75" r="75" fill="#6B6EFF"/>
<path d="M118.639 58.5875C117.415 46.3742 109.479 43.8047 102.493 42.632C98.9845 42.0247 92.7396 41.4934 88.7123 41.3416C85.2042 41.1139 76.9642 41 74.4907 41C72.0543 41 63.7735 41.1139 60.2691 41.3416C56.2789 41.4934 49.9969 42.0247 46.4888 42.632C39.5059 43.8427 31.5589 46.4045 30.3426 58.5875C30.0459 61.9159 29.9717 66.2654 30.0088 70.9146C30.1201 78.6229 30.7505 83.8414 31.1213 87.4735C31.3809 89.9671 32.3748 97.4173 33.669 101.273C35.4416 106.568 37.0658 108.116 38.9497 109.706C42.4244 112.58 48.1131 113.487 49.296 113.714C55.7227 114.891 68.7279 115.111 74.4536 115.111C80.1794 115.111 93.1809 114.921 99.6112 113.714C100.831 113.487 106.52 112.614 109.958 109.706C111.841 108.116 113.466 106.568 115.238 101.273C116.536 97.4173 117.567 89.9671 117.827 87.4735C118.198 83.8414 118.861 78.6229 118.936 70.9146C119.084 66.2654 118.973 61.9159 118.639 58.5875ZM114.278 79.0821C113.573 88.8361 112.728 94.6581 111.508 98.8936C110.432 102.598 109.145 105.053 107.187 106.833C103.972 109.82 99.537 110.462 96.9523 110.841C91.3378 111.714 81.9149 111.98 74.4907 111.98C67.0666 111.98 57.6436 111.676 52.0291 110.841C49.4444 110.462 45.0092 109.82 41.794 106.833C39.8731 105.053 38.5455 102.56 37.5108 98.8898C36.2908 94.696 35.4416 88.8323 34.7407 79.0783C34.3328 73.2222 34.4069 63.6921 35.0374 58.5837C35.9941 50.9513 39.6914 47.1294 47.5976 45.6948C51.2911 45.0116 56.2752 44.5182 60.97 44.2905C64.7377 44.0249 70.9826 43.911 74.4536 43.949C77.9247 43.911 84.1696 44.0628 87.9373 44.2905C92.6654 44.5182 97.6161 45.0116 101.31 45.6948C109.253 47.1294 112.95 50.9893 113.874 58.5875C114.612 63.6921 114.719 73.2222 114.278 79.0821ZM94.9906 47.2395C92.9584 56.5835 92.1463 60.8571 90.4812 67.6203C88.894 74.1292 87.6369 80.1372 85.5305 83.0482C83.3537 85.9972 80.4686 86.6424 78.5106 86.8663C77.476 86.9802 76.738 87.0181 74.5575 87.0561C72.3473 87.0561 71.6056 86.9802 70.571 86.8663C68.6129 86.6386 65.6945 85.9972 63.5547 83.0482C61.4113 80.1372 60.1912 74.1292 58.6041 67.6241C56.8611 60.895 56.0898 56.5797 54.0205 47.2433C54.0205 47.2433 51.9883 47.3192 51.0649 47.3951C49.8449 47.471 48.8844 47.5849 47.8498 47.7367C49.1218 68.1251 50.416 89.7849 52.0254 108.955C54.9662 109.334 57.9249 109.548 60.8884 109.596C62.1122 104.792 63.6623 98.1346 65.3644 95.2995C66.7662 92.9919 68.9467 92.73 70.1668 92.5782C72.0877 92.3126 73.712 92.2746 74.487 92.2746C75.2287 92.2367 76.8492 92.2746 78.8073 92.5782C80.031 92.768 82.2078 92.9957 83.6096 95.2995C85.3525 98.1346 86.8618 104.788 88.0819 109.593C88.0819 109.593 89.4095 109.555 92.4021 109.403C93.9226 109.335 95.443 109.183 96.9486 108.947C98.647 88.4907 99.8597 68.2313 101.124 47.7367C100.086 47.5849 99.1291 47.471 97.9091 47.3951C97.0562 47.3192 94.9906 47.2395 94.9906 47.2395Z" fill="white"/>
</svg>
