<svg width="150" height="150" viewBox="0 0 150 150" fill="none" xmlns="http://www.w3.org/2000/svg">
<circle cx="75" cy="75" r="75" fill="#6B6EFF"/>
<path d="M73.5 55.7107C42.6047 55.7107 17.5627 64.2512 17.5627 74.6976C17.5627 85.1439 42.6047 93.6795 73.5 93.6795C104.39 93.6795 129.432 85.1439 129.432 74.6976C129.432 64.2462 104.39 55.7107 73.5 55.7107ZM44.7726 87.1707C41.4653 87.1959 38.5562 85.154 38.2184 81.6198C38.0264 79.7782 38.558 77.9342 39.7007 76.4773C40.6838 75.1967 42.3475 74.1329 43.7542 73.8708C44.2079 73.785 44.828 73.8405 45.0852 74.143C45.4835 74.6119 45.3675 75.1211 44.9692 75.3228C43.8953 75.8723 42.5996 76.81 41.9593 78.0957C41.666 78.6408 41.527 79.2557 41.5572 79.874C41.5874 80.4923 41.7857 81.0907 42.1307 81.6047C43.4567 83.6062 47.1573 83.6617 50.5957 80.4703C51.4477 79.6838 52.209 78.9376 52.9804 78.0503C54.4929 76.316 54.9971 75.6807 57.0137 72.8876C57.039 72.8574 57.044 72.817 57.0339 72.7969C57.0188 72.7616 56.9885 72.7465 56.9331 72.7465C55.587 72.7817 54.4122 73.1851 53.2779 74.0321C52.9502 74.2741 52.4762 74.2388 52.2695 73.9262C52.0376 73.5733 52.204 73.1044 52.5821 72.8422C54.4122 71.5667 56.4138 71.3398 58.4607 70.992C58.4607 70.992 58.6019 71.002 58.7178 70.8407C59.5598 69.7668 60.19 68.7988 61.0874 67.7098C61.9848 66.6007 63.1545 65.5923 64.0418 64.826C65.2821 63.7572 66.0787 63.3992 66.8853 62.9606C67.1021 62.8497 66.8601 62.7135 66.7946 62.7135C62.2772 61.8665 57.5835 60.7675 53.0964 62.4312C49.9907 63.5908 48.6244 66.0511 49.2798 67.6998C49.7487 68.8644 51.2814 69.061 52.7233 68.3552C53.9772 67.7333 55.0411 66.7861 55.8037 65.6125C56.2424 64.9369 57.165 65.4209 56.6659 66.5956C55.355 69.6761 52.8493 72.1263 49.7941 72.2322C47.1926 72.3129 45.5137 70.4021 45.5187 68.0426C45.5288 63.3841 50.7117 60.3188 56.1567 59.865C62.7159 59.3205 68.9272 61.07 75.441 61.8565C80.4272 62.4615 85.2118 62.4766 90.2232 61.322C90.8181 61.196 91.2315 61.5741 91.1963 62.169C91.1458 63.0362 90.4753 63.8681 88.8267 64.7705C86.9461 65.799 84.9799 66.1116 82.9279 66.1318C77.9669 66.1721 73.3437 64.2361 68.5592 63.1975C68.5693 63.4042 68.6197 63.6563 68.4432 63.7874C65.7963 65.7436 63.4015 67.73 61.7983 70.513C61.7428 70.5785 61.7731 70.639 61.8638 70.634C63.2604 70.5584 64.5107 70.5231 65.8115 70.4223C66.0383 70.4021 66.0484 70.3466 66.0282 70.1802C65.957 69.6648 66.0115 69.1397 66.1871 68.6499C66.3627 68.16 66.6541 67.7199 67.0366 67.367C67.9038 66.5956 68.9877 66.5099 69.7087 67.0645C70.5153 67.6997 70.4498 68.8442 70.0011 69.7013C69.8013 70.0777 69.5279 70.41 69.197 70.6785C68.8661 70.947 68.4846 71.1462 68.0752 71.2642C68.0752 71.2642 67.9239 71.2945 67.9441 71.4356C67.9743 71.6524 68.9524 72.1969 69.0381 72.3431C69.1238 72.4792 69.0785 72.696 68.9322 72.8574C68.8741 72.9282 68.801 72.9853 68.7182 73.0246C68.6354 73.0638 68.5449 73.0842 68.4533 73.0842C68.2869 73.0842 68.1861 73.0238 67.9693 72.9078C67.4504 72.6326 66.9884 72.2613 66.608 71.8138C66.487 71.6575 66.4215 71.6524 66.1089 71.6675C64.7023 71.7533 62.5092 71.965 61.0219 72.1515C60.6639 72.1919 60.6085 72.2625 60.5379 72.3885C58.1683 76.2958 55.6374 80.5056 52.8594 83.3289C49.8747 86.3539 47.3993 87.1505 44.7726 87.1707ZM109.044 68.1838C108.585 68.9803 99.7217 82.4718 99.1621 83.8633C98.9856 84.307 98.9604 84.6448 99.1419 84.8918C99.6058 85.517 100.639 85.149 101.285 84.7002C103.205 83.3793 104.536 81.7761 106.009 80.3745C106.094 80.309 106.241 80.2838 106.336 80.3745C106.553 80.5762 106.871 80.8333 107.093 81.0652C107.112 81.0833 107.128 81.1051 107.139 81.1294C107.151 81.1537 107.157 81.18 107.158 81.2068C107.159 81.2335 107.154 81.2602 107.145 81.2852C107.135 81.3103 107.121 81.3332 107.103 81.3526C105.756 83.0455 104.227 84.5856 102.545 85.9455C100.175 87.7807 97.8109 88.2496 96.6362 87.0749C96.222 86.6426 95.9722 86.0789 95.9304 85.4817C95.9203 85.1943 95.7741 85.1792 95.638 85.3103C94.2364 86.6968 91.8063 88.2294 89.598 87.1354C87.7528 86.2279 87.3242 84.0196 87.6671 82.1643C87.6721 82.124 87.6368 81.8618 87.41 82.013C86.9445 82.3515 86.4358 82.6262 85.8975 82.8298C85.3187 83.0941 84.6884 83.2267 84.0522 83.218C83.5947 83.2232 83.1438 83.1081 82.7448 82.8843C82.3457 82.6604 82.0125 82.3356 81.7784 81.9425C81.4809 81.4061 81.3166 80.8061 81.2995 80.193C81.2944 80.1375 81.2137 80.0317 81.1331 80.1678C79.6206 82.4718 78.214 84.7002 76.7216 87.0396C76.641 87.1505 76.5704 87.2211 76.4191 87.2261L73.4597 87.2312C73.2782 87.2312 73.1925 87.09 73.2882 86.9135C73.8126 85.9052 76.6863 81.7206 78.6324 78.1612C79.1719 77.1831 79.061 76.679 78.7282 76.4622C78.3097 76.1899 77.4779 76.5983 76.7771 77.1327C74.8663 78.5797 73.263 80.8383 72.4463 81.8467C71.9673 82.4365 71.5136 83.3138 70.2632 84.67C68.292 86.8127 65.6753 88.0429 63.1646 87.1908C62.5014 86.9661 61.9035 86.582 61.4235 86.0721C60.9435 85.5622 60.5961 84.9422 60.4118 84.2667C60.3362 84.0045 60.19 83.9339 60.0438 84.1053C59.6405 84.6095 58.8086 85.3607 58.1128 85.8296C58.0372 85.885 57.8507 85.996 57.6893 85.9153C57.3858 85.6205 57.1276 85.2824 56.923 84.912C56.8926 84.8448 56.884 84.7697 56.8985 84.6974C56.913 84.625 56.9497 84.559 57.0037 84.5087C57.9969 83.6365 58.5414 83.1424 58.975 82.5928C59.2976 82.1895 59.5447 81.7358 59.832 81.0047C60.437 79.4821 61.8134 76.6386 64.5611 75.1665C65.5762 74.5917 66.6921 74.2169 67.8483 74.0623C68.3525 74.0119 68.7709 74.0724 68.9222 74.4657C68.9776 74.632 69.1188 74.995 69.2045 75.2623C69.26 75.4236 69.2196 75.5496 69.028 75.6202C67.4147 76.2353 65.7862 77.1882 64.667 78.6956C63.3915 80.3997 63.0486 82.4567 63.9007 83.6365C64.5208 84.4935 65.5241 84.6448 66.4921 84.3372C67.9542 83.8734 69.2045 82.5071 69.8498 80.9946C70.5456 79.3359 70.6565 77.3798 70.1422 75.6555C70.0616 75.358 70.1372 75.1312 70.3288 74.9698C70.717 74.6522 71.2565 74.4052 71.4128 74.3245C71.5667 74.2422 71.7457 74.2198 71.9151 74.2617C72.0846 74.3036 72.2325 74.4068 72.3303 74.5514C72.8647 75.3429 73.1521 76.4571 73.1874 77.6117C73.2177 77.8587 73.3185 77.8637 73.4395 77.7377C74.3974 76.7193 75.2847 75.6303 76.3032 74.8135C77.2359 74.0724 78.4307 73.4674 79.545 73.4926C80.9869 73.5229 81.7028 74.501 81.6574 76.2454C81.6524 76.4672 81.8087 76.447 81.9145 76.3008C82.2487 75.7989 82.6566 75.3502 83.1245 74.9698C84.1228 74.148 85.1412 73.78 86.205 73.8506C87.5158 73.9514 88.5645 75.1463 88.3477 76.5075C88.2954 76.9381 88.1391 77.3494 87.8923 77.7061C87.6454 78.0627 87.3155 78.3539 86.931 78.5545C86.6077 78.7267 86.2401 78.7976 85.8759 78.758C85.5117 78.7185 85.1679 78.5702 84.8891 78.3326C84.6731 78.1283 84.5146 77.8707 84.4296 77.5858C84.3447 77.3008 84.3362 76.9985 84.4051 76.7092C84.4303 76.5832 84.269 76.4672 84.1329 76.6084C82.8523 77.9394 82.7565 79.6636 83.5934 80.44C84.516 81.2971 85.9025 80.7224 86.9108 80.0619C88.7561 78.857 90.1879 77.2235 91.8466 75.963C92.9457 75.1261 94.2011 74.38 95.6077 74.1934C96.3804 74.0753 97.1706 74.1658 97.8966 74.4556C98.905 74.864 99.5402 75.716 99.6209 76.4521C99.641 76.6689 99.8024 76.6941 99.9385 76.5025C100.735 75.2622 105.005 68.8543 105.358 68.1838C105.459 67.977 105.58 67.9468 105.807 67.9468H108.862C109.039 67.9468 109.119 68.0476 109.044 68.1838ZM97.3471 79.2956C97.3158 79.3582 97.3104 79.4306 97.332 79.4973C97.3471 79.5981 97.4832 79.6989 97.6143 79.7493C97.6647 79.7645 97.6899 79.7998 97.6345 79.9107C97.2563 80.7173 96.9135 81.1812 96.4396 81.882C96.0208 82.5012 95.5109 83.0536 94.9271 83.5205C94.0297 84.2616 92.7894 85.0683 91.7609 84.5288C91.3072 84.2919 91.1055 83.6516 91.1206 83.1373C91.1408 81.6853 91.7861 80.193 92.981 78.7259C94.433 76.9361 96.0413 76.0084 97.095 76.5176C98.184 77.0369 97.8412 78.3074 97.3471 79.2956ZM67.3542 69.8122C67.3163 69.4901 67.357 69.1636 67.4729 68.8606C67.5888 68.5577 67.7765 68.2874 68.0197 68.0728C68.3071 67.8207 68.6903 67.7603 68.9272 67.9619C69.1894 68.1888 69.0633 68.7535 68.7961 69.1417C68.5059 69.5788 68.0671 69.8959 67.5609 70.034C67.4702 70.0542 67.3895 70.0139 67.3542 69.8122ZM73.5 52C39.9225 52 13 62.0682 13 74.6875C13 87.2312 40.1393 97.375 73.5 97.375C106.861 97.375 134 87.1908 134 74.6875C134 62.1842 106.861 52 73.5 52ZM73.5 95.3987C41.4804 95.3987 15.5208 86.1321 15.5208 74.6976C15.5208 63.258 41.4854 53.9915 73.5 53.9915C105.515 53.9915 131.469 63.258 131.469 74.6976C131.469 86.1321 105.515 95.3987 73.5 95.3987Z" fill="white"/>
</svg>
