<svg width="150" height="150" viewBox="0 0 150 150" fill="none" xmlns="http://www.w3.org/2000/svg">
<circle cx="75" cy="75" r="75" fill="#6B6EFF"/>
<path d="M111.539 51.573C113.54 56.2703 114.51 61.5649 114.51 67.7598C114.51 71.1068 114.232 74.6747 113.667 78.6682C112.497 86.8925 109.379 95.485 106.506 101.148C106.04 102.06 105.668 102.666 104.919 103.329C103.609 104.483 102.456 104.769 102.03 104.519C101.686 104.315 101.494 103.284 101.564 101.766C101.621 100.473 101.928 99.5153 102.398 97.9851C104.598 90.7344 106.24 83.3259 107.308 75.8245C108.884 64.9242 108.822 55.1205 106.486 49.1467C106.25 48.5335 105.948 47.9477 105.586 47.3995C105.332 47.0313 105.152 46.8431 105.152 46.8431C100.32 42.0026 87.2714 39.5762 74.2189 39.5762C61.1664 39.5762 48.1221 42.0026 43.2939 46.8431C43.2939 46.8431 43.1098 47.0272 42.8602 47.3995C42.4938 47.9445 42.1905 48.5292 41.956 49.1426C39.6155 55.1164 39.5582 64.9242 41.1335 75.8245C42.1974 83.2182 43.8831 91.0455 46.154 98.3451C46.5468 99.6013 46.8005 100.456 46.8619 101.782C46.9274 103.292 46.7391 104.319 46.3954 104.524C45.9699 104.769 44.8038 104.483 43.4903 103.317C42.5492 102.478 42.0787 101.659 41.4854 100.448C38.7031 94.7813 35.7857 86.5488 34.6646 78.6682C34.1262 75.0565 33.8445 71.4113 33.8217 67.7598C33.8217 61.5649 34.7955 56.2744 36.7922 51.5812C38.2939 48.0624 40.8144 45.1164 44.0836 43.0582C52.1183 37.9766 61.2992 34.9913 70.786 34.3757C71.8963 34.3076 73.0083 34.2721 74.1207 34.2693H74.2025C75.3237 34.2693 76.4448 34.3102 77.5495 34.3757C86.8868 34.9403 96.1217 37.9477 104.248 43.0582C107.49 45.0877 110.034 48.0562 111.539 51.573ZM92.0505 111.009C91.6904 111.087 90.5734 111.349 89.4645 111.651C88.4703 111.925 87.4882 112.142 87.0218 112.236C82.8197 113.028 78.5521 113.418 74.2762 113.403H74.1616C69.5912 113.403 65.254 112.981 61.4201 112.236C60.6509 112.079 59.8867 111.897 59.1288 111.692C58.3092 111.473 57.4853 111.271 56.6574 111.087C54.9471 110.698 53.4004 110.42 53.3145 110.747C53.2122 111.128 53.9773 111.925 54.9552 112.678C55.1844 112.85 55.7531 113.251 56.416 113.578C57.0297 113.877 57.7253 114.102 57.9954 114.192C62.488 115.645 67.5945 116.246 74.1207 116.246H74.2107C80.606 116.246 85.6429 115.665 90.0742 114.27C91.5922 113.791 92.4883 113.407 93.5644 112.551C94.4646 111.84 95.1397 111.107 95.0415 110.751C94.9597 110.444 93.6176 110.665 92.0505 111.009ZM81.7885 68.8113C81.1952 65.4971 80.4792 62.952 79.669 61.2417L79.6609 61.2253H79.5749L76.7844 61.2008H76.7435L76.633 73.4677H82.4677L82.4637 73.4267C82.4637 73.4063 82.2345 71.2909 81.7885 68.8113ZM105.357 75.714C104.039 84.8303 101.756 94.6299 98.5644 103.132C98.0325 104.564 97.5497 105.096 96.3959 105.997C93.4187 108.093 90.027 109.527 86.449 110.203C82.7787 110.919 78.642 111.316 74.2803 111.316H74.1616C70.0806 111.333 66.0072 110.96 61.997 110.203C58.4162 109.528 55.0215 108.094 52.042 105.997C50.8881 105.096 50.4094 104.564 49.8856 103.132C46.6859 94.6299 44.4028 84.8303 43.0893 75.714C41.5632 65.1697 41.6573 55.8816 43.8259 50.3374C44.1 49.6418 44.3905 49.1426 44.6033 48.8275C44.7915 48.5616 44.9224 48.4184 44.9224 48.4184C49.2923 44.0402 61.5347 41.6589 74.2189 41.6589C86.9072 41.6589 99.1496 44.0402 103.515 48.4224C103.515 48.4224 103.646 48.5575 103.835 48.8316C104.047 49.1426 104.342 49.6377 104.612 50.3374C106.785 55.8816 106.879 65.1697 105.357 75.714ZM61.3301 56.9536L50.3562 56.8922L51.4487 95.0963L56.0395 95.1454L55.9741 77.7558H60.123V73.2672H55.9741V61.434H61.3342V56.9495L61.3301 56.9536ZM69.0061 56.8718L63.4209 56.8841L64.1615 95.1413H68.8956L69.0061 56.8718ZM83.1142 56.9291H71.9357L72.3776 95.1209H76.8458L76.8826 77.8458H82.6846L82.6928 77.8744C83.2165 81.1355 83.2574 94.9408 83.2574 95.08V95.1413H87.6069L87.6437 93.1814C87.8401 83.2795 88.1757 66.7123 83.1142 56.9291ZM100.79 56.8759L87.1077 56.9291V61.3358H91.1912V61.3767L91.0194 95.1413H95.6512L96.7764 61.3358H100.79V56.8759ZM122.996 75.1002C122.996 102.175 101.015 124.2 73.9939 124.2C46.9805 124.2 25 102.175 25 75.1002C25 48.0256 46.9805 26 73.998 26C101.019 26 122.996 48.0256 122.996 75.1002ZM121.646 75.0675C121.625 48.7539 100.258 27.3503 73.9898 27.3503C47.983 27.3503 26.7799 48.3529 26.3625 74.3269C26.9424 72.9989 27.9204 71.8838 29.1612 71.1354C31.8413 69.5478 32.5737 65.4684 32.8151 63.0298L32.8642 62.7761C32.7046 64.3923 32.5778 66.0085 32.5778 67.7598C32.5778 71.164 32.8642 74.7893 33.4371 78.84C35.1228 90.7059 40.8553 103.419 44.2268 107.31L44.4151 107.515L45.2007 108.341L45.2293 108.366C53.4536 115.105 61.0109 117.49 74.1207 117.49H74.2107C87.3164 117.49 94.8737 115.105 103.098 108.366L103.135 108.341L103.892 107.535L104.105 107.306C107.484 103.402 113.213 90.7059 114.898 78.84C115.471 74.7893 115.754 71.164 115.754 67.7598C115.754 65.9021 115.668 64.1182 115.492 62.4037L115.516 62.4283C115.762 64.871 117.067 71.1886 119.588 73.0094C120.447 73.6313 121.122 74.3065 121.646 75.0675Z" fill="white"/>
</svg>
