<svg width="150" height="150" viewBox="0 0 150 150" fill="none" xmlns="http://www.w3.org/2000/svg">
<circle cx="75" cy="75" r="75" fill="#6B6EFF"/>
<path d="M132.53 64.6309H92.9368V57.7109C92.9375 57.6178 92.9178 57.5254 92.879 57.4392C92.8402 57.353 92.7829 57.2746 92.7106 57.2085C92.6382 57.1424 92.5522 57.09 92.4574 57.0542C92.3626 57.0184 92.261 57 92.1584 57H54.8465C54.7438 57 54.6422 57.0184 54.5474 57.0542C54.4526 57.09 54.3666 57.1424 54.2942 57.2085C54.2219 57.2746 54.1647 57.353 54.1258 57.4392C54.087 57.5254 54.0673 57.6178 54.068 57.7109V64.6309H25.6911C25.2597 64.6309 24.7342 64.9458 24.516 65.3417L14.0984 83.861C13.8753 84.2569 14.0439 84.5674 14.4802 84.5674H54.063V91.4963C54.063 91.8833 54.4101 92.2027 54.8415 92.2027H92.1534C92.5848 92.2027 92.9319 91.8878 92.9319 91.4963V84.5674H121.309C121.74 84.5674 122.266 84.2524 122.489 83.861L132.901 65.3417C133.125 64.9503 132.956 64.6309 132.525 64.6309M120.158 69.1122L113.99 80.077H88.0479V87.7619H58.9718V80.077H26.8663L33.0395 69.1122H58.9818V61.4318H88.0578V69.1122H120.158Z" fill="white"/>
</svg>
