<svg width="24" height="22" viewBox="0 0 24 22" fill="none" xmlns="http://www.w3.org/2000/svg">
<path d="M6.88184 8.05859H16.2936" stroke="#8C8C8C" stroke-width="2" stroke-linecap="round" stroke-linejoin="round"/>
<path d="M5.70605 12.7656H6.88253" stroke="#8C8C8C" stroke-width="2" stroke-linecap="round" stroke-linejoin="round"/>
<path d="M16.2939 12.7656H17.4704" stroke="#8C8C8C" stroke-width="2" stroke-linecap="round" stroke-linejoin="round"/>
<path d="M1 17.4706V9.71824C1 9.39965 1.06473 9.08424 1.19025 8.79141L3.91824 2.42607C4.28901 1.56093 5.13969 1 6.08093 1H17.0955C18.0368 1 18.8874 1.56093 19.2582 2.42607L21.9862 8.79141C22.1118 9.08424 22.1765 9.39965 22.1765 9.71824V17.4706M1 17.4706V20.2941C1 20.684 1.31604 21 1.70588 21H5C5.38985 21 5.70588 20.684 5.70588 20.2941V17.4706M1 17.4706H5.70588M22.1765 17.4706V20.2941C22.1765 20.684 21.8605 21 21.4706 21H18.1765C17.7866 21 17.4706 20.684 17.4706 20.2941V17.4706M22.1765 17.4706H17.4706M5.70588 17.4706H17.4706" stroke="#565656" stroke-width="2"/>
</svg>
