<svg width="32" height="32" viewBox="0 0 32 32" fill="none" xmlns="http://www.w3.org/2000/svg">
<path d="M31.5 16C31.5 24.5604 24.5604 31.5 16 31.5C7.43959 31.5 0.5 24.5604 0.5 16C0.5 7.43959 7.43959 0.5 16 0.5C24.5604 0.5 31.5 7.43959 31.5 16Z" fill="white" stroke="black"/>
<path d="M15.7728 10.2856C14.0429 10.2856 12.6276 11.984 12.6276 14.0767C12.6276 16.1694 14.0429 17.8678 15.7728 17.8678C17.5026 17.8678 18.918 16.1694 18.918 14.0767C18.918 11.984 17.5026 10.2856 15.7728 10.2856ZM12.4861 17.8678C10.8191 17.9436 9.48242 19.2629 9.48242 20.9006V22.417H22.0631V20.9006C22.0631 19.2629 20.7422 17.9436 19.0595 17.8678C18.2103 18.7928 17.0466 19.3842 15.7728 19.3842C14.499 19.3842 13.3353 18.7928 12.4861 17.8678Z" fill="black"/>
</svg>
