<svg width="270" height="32" viewBox="0 0 270 32" fill="none" xmlns="http://www.w3.org/2000/svg">
<path d="M40.1102 17.53C40.1102 15.49 40.5802 13.66 41.5202 12.04C42.4802 10.42 43.7702 9.16 45.3902 8.26C47.0302 7.34 48.8202 6.88 50.7602 6.88C52.9802 6.88 54.9502 7.43 56.6702 8.53C58.4102 9.61 59.6702 11.15 60.4502 13.15H56.3402C55.8002 12.05 55.0502 11.23 54.0902 10.69C53.1302 10.15 52.0202 9.88 50.7602 9.88C49.3802 9.88 48.1502 10.19 47.0702 10.81C45.9902 11.43 45.1402 12.32 44.5202 13.48C43.9202 14.64 43.6202 15.99 43.6202 17.53C43.6202 19.07 43.9202 20.42 44.5202 21.58C45.1402 22.74 45.9902 23.64 47.0702 24.28C48.1502 24.9 49.3802 25.21 50.7602 25.21C52.0202 25.21 53.1302 24.94 54.0902 24.4C55.0502 23.86 55.8002 23.04 56.3402 21.94H60.4502C59.6702 23.94 58.4102 25.48 56.6702 26.56C54.9502 27.64 52.9802 28.18 50.7602 28.18C48.8002 28.18 47.0102 27.73 45.3902 26.83C43.7702 25.91 42.4802 24.64 41.5202 23.02C40.5802 21.4 40.1102 19.57 40.1102 17.53Z" fill="black"/>
<path d="M71.6234 28.27C70.0634 28.27 68.6533 27.92 67.3933 27.22C66.1333 26.5 65.1433 25.5 64.4233 24.22C63.7033 22.92 63.3433 21.42 63.3433 19.72C63.3433 18.04 63.7134 16.55 64.4534 15.25C65.1934 13.95 66.2034 12.95 67.4834 12.25C68.7634 11.55 70.1934 11.2 71.7734 11.2C73.3534 11.2 74.7833 11.55 76.0633 12.25C77.3433 12.95 78.3534 13.95 79.0934 15.25C79.8334 16.55 80.2034 18.04 80.2034 19.72C80.2034 21.4 79.8234 22.89 79.0634 24.19C78.3034 25.49 77.2634 26.5 75.9434 27.22C74.6434 27.92 73.2034 28.27 71.6234 28.27ZM71.6234 25.3C72.5034 25.3 73.3234 25.09 74.0834 24.67C74.8634 24.25 75.4934 23.62 75.9734 22.78C76.4534 21.94 76.6934 20.92 76.6934 19.72C76.6934 18.52 76.4633 17.51 76.0033 16.69C75.5433 15.85 74.9333 15.22 74.1733 14.8C73.4133 14.38 72.5933 14.17 71.7133 14.17C70.8333 14.17 70.0133 14.38 69.2533 14.8C68.5133 15.22 67.9234 15.85 67.4834 16.69C67.0434 17.51 66.8233 18.52 66.8233 19.72C66.8233 21.5 67.2733 22.88 68.1733 23.86C69.0933 24.82 70.2434 25.3 71.6234 25.3Z" fill="black"/>
<path d="M91.9242 11.2C93.2242 11.2 94.3842 11.47 95.4042 12.01C96.4442 12.55 97.2542 13.35 97.8342 14.41C98.4142 15.47 98.7042 16.75 98.7042 18.25V28H95.3142V18.76C95.3142 17.28 94.9442 16.15 94.2042 15.37C93.4642 14.57 92.4542 14.17 91.1742 14.17C89.8942 14.17 88.8742 14.57 88.1142 15.37C87.3742 16.15 87.0042 17.28 87.0042 18.76V28H83.5842V11.47H87.0042V13.36C87.5642 12.68 88.2742 12.15 89.1342 11.77C90.0142 11.39 90.9442 11.2 91.9242 11.2Z" fill="black"/>
<path d="M111.407 11.2C112.707 11.2 113.867 11.47 114.887 12.01C115.927 12.55 116.737 13.35 117.317 14.41C117.897 15.47 118.187 16.75 118.187 18.25V28H114.797V18.76C114.797 17.28 114.427 16.15 113.687 15.37C112.947 14.57 111.937 14.17 110.657 14.17C109.377 14.17 108.357 14.57 107.597 15.37C106.857 16.15 106.487 17.28 106.487 18.76V28H103.067V11.47H106.487V13.36C107.047 12.68 107.757 12.15 108.617 11.77C109.497 11.39 110.427 11.2 111.407 11.2Z" fill="black"/>
<path d="M137.699 19.33C137.699 19.95 137.659 20.51 137.579 21.01H124.949C125.049 22.33 125.539 23.39 126.419 24.19C127.299 24.99 128.379 25.39 129.659 25.39C131.499 25.39 132.799 24.62 133.559 23.08H137.249C136.749 24.6 135.839 25.85 134.519 26.83C133.219 27.79 131.599 28.27 129.659 28.27C128.079 28.27 126.659 27.92 125.399 27.22C124.159 26.5 123.179 25.5 122.459 24.22C121.759 22.92 121.409 21.42 121.409 19.72C121.409 18.02 121.749 16.53 122.429 15.25C123.129 13.95 124.099 12.95 125.339 12.25C126.599 11.55 128.039 11.2 129.659 11.2C131.219 11.2 132.609 11.54 133.829 12.22C135.049 12.9 135.999 13.86 136.679 15.1C137.359 16.32 137.699 17.73 137.699 19.33ZM134.129 18.25C134.109 16.99 133.659 15.98 132.779 15.22C131.899 14.46 130.809 14.08 129.509 14.08C128.329 14.08 127.319 14.46 126.479 15.22C125.639 15.96 125.139 16.97 124.979 18.25H134.129Z" fill="black"/>
<path d="M139.925 19.72C139.925 18.02 140.265 16.53 140.945 15.25C141.645 13.95 142.605 12.95 143.825 12.25C145.045 11.55 146.445 11.2 148.025 11.2C150.025 11.2 151.675 11.68 152.975 12.64C154.295 13.58 155.185 14.93 155.645 16.69H151.955C151.655 15.87 151.175 15.23 150.515 14.77C149.855 14.31 149.025 14.08 148.025 14.08C146.625 14.08 145.505 14.58 144.665 15.58C143.845 16.56 143.435 17.94 143.435 19.72C143.435 21.5 143.845 22.89 144.665 23.89C145.505 24.89 146.625 25.39 148.025 25.39C150.005 25.39 151.315 24.52 151.955 22.78H155.645C155.165 24.46 154.265 25.8 152.945 26.8C151.625 27.78 149.985 28.27 148.025 28.27C146.445 28.27 145.045 27.92 143.825 27.22C142.605 26.5 141.645 25.5 140.945 24.22C140.265 22.92 139.925 21.42 139.925 19.72Z" fill="black"/>
<path d="M163.043 14.26V23.41C163.043 24.03 163.183 24.48 163.463 24.76C163.763 25.02 164.263 25.15 164.963 25.15H167.063V28H164.363C162.823 28 161.643 27.64 160.823 26.92C160.003 26.2 159.593 25.03 159.593 23.41V14.26H157.643V11.47H159.593V7.36H163.043V11.47H167.063V14.26H163.043Z" fill="black"/>
<path d="M192.175 7.15V28H188.755V13.72L182.395 28H180.025L173.635 13.72V28H170.215V7.15H173.905L181.225 23.5L188.515 7.15H192.175Z" fill="black"/>
<path d="M203.84 28.27C202.28 28.27 200.87 27.92 199.61 27.22C198.35 26.5 197.36 25.5 196.64 24.22C195.92 22.92 195.56 21.42 195.56 19.72C195.56 18.04 195.93 16.55 196.67 15.25C197.41 13.95 198.42 12.95 199.7 12.25C200.98 11.55 202.41 11.2 203.99 11.2C205.57 11.2 207 11.55 208.28 12.25C209.56 12.95 210.57 13.95 211.31 15.25C212.05 16.55 212.42 18.04 212.42 19.72C212.42 21.4 212.04 22.89 211.28 24.19C210.52 25.49 209.48 26.5 208.16 27.22C206.86 27.92 205.42 28.27 203.84 28.27ZM203.84 25.3C204.72 25.3 205.54 25.09 206.3 24.67C207.08 24.25 207.71 23.62 208.19 22.78C208.67 21.94 208.91 20.92 208.91 19.72C208.91 18.52 208.68 17.51 208.22 16.69C207.76 15.85 207.15 15.22 206.39 14.8C205.63 14.38 204.81 14.17 203.93 14.17C203.05 14.17 202.23 14.38 201.47 14.8C200.73 15.22 200.14 15.85 199.7 16.69C199.26 17.51 199.04 18.52 199.04 19.72C199.04 21.5 199.49 22.88 200.39 23.86C201.31 24.82 202.46 25.3 203.84 25.3Z" fill="black"/>
<path d="M219.791 14.26V23.41C219.791 24.03 219.931 24.48 220.211 24.76C220.511 25.02 221.011 25.15 221.711 25.15H223.811V28H221.111C219.571 28 218.391 27.64 217.571 26.92C216.751 26.2 216.341 25.03 216.341 23.41V14.26H214.391V11.47H216.341V7.36H219.791V11.47H223.811V14.26H219.791Z" fill="black"/>
<path d="M234.133 28.27C232.573 28.27 231.163 27.92 229.903 27.22C228.643 26.5 227.653 25.5 226.933 24.22C226.213 22.92 225.853 21.42 225.853 19.72C225.853 18.04 226.223 16.55 226.963 15.25C227.703 13.95 228.713 12.95 229.993 12.25C231.273 11.55 232.703 11.2 234.283 11.2C235.863 11.2 237.293 11.55 238.573 12.25C239.853 12.95 240.863 13.95 241.603 15.25C242.343 16.55 242.713 18.04 242.713 19.72C242.713 21.4 242.333 22.89 241.573 24.19C240.813 25.49 239.773 26.5 238.453 27.22C237.153 27.92 235.713 28.27 234.133 28.27ZM234.133 25.3C235.013 25.3 235.833 25.09 236.593 24.67C237.373 24.25 238.003 23.62 238.483 22.78C238.963 21.94 239.203 20.92 239.203 19.72C239.203 18.52 238.973 17.51 238.513 16.69C238.053 15.85 237.443 15.22 236.683 14.8C235.923 14.38 235.103 14.17 234.223 14.17C233.343 14.17 232.523 14.38 231.763 14.8C231.023 15.22 230.433 15.85 229.993 16.69C229.553 17.51 229.333 18.52 229.333 19.72C229.333 21.5 229.783 22.88 230.683 23.86C231.603 24.82 232.753 25.3 234.133 25.3Z" fill="black"/>
<path d="M249.514 13.87C250.014 13.03 250.674 12.38 251.494 11.92C252.334 11.44 253.324 11.2 254.464 11.2V14.74H253.594C252.254 14.74 251.234 15.08 250.534 15.76C249.854 16.44 249.514 17.62 249.514 19.3V28H246.094V11.47H249.514V13.87Z" fill="black"/>
<path d="M263.608 28.27C262.308 28.27 261.138 28.04 260.098 27.58C259.078 27.1 258.268 26.46 257.668 25.66C257.068 24.84 256.748 23.93 256.708 22.93H260.248C260.308 23.63 260.638 24.22 261.238 24.7C261.858 25.16 262.628 25.39 263.548 25.39C264.508 25.39 265.248 25.21 265.768 24.85C266.308 24.47 266.578 23.99 266.578 23.41C266.578 22.79 266.278 22.33 265.678 22.03C265.098 21.73 264.168 21.4 262.888 21.04C261.648 20.7 260.638 20.37 259.858 20.05C259.078 19.73 258.398 19.24 257.818 18.58C257.258 17.92 256.978 17.05 256.978 15.97C256.978 15.09 257.238 14.29 257.758 13.57C258.278 12.83 259.018 12.25 259.978 11.83C260.958 11.41 262.078 11.2 263.338 11.2C265.218 11.2 266.728 11.68 267.868 12.64C269.028 13.58 269.648 14.87 269.728 16.51H266.308C266.248 15.77 265.948 15.18 265.408 14.74C264.868 14.3 264.138 14.08 263.218 14.08C262.318 14.08 261.628 14.25 261.148 14.59C260.668 14.93 260.428 15.38 260.428 15.94C260.428 16.38 260.588 16.75 260.908 17.05C261.228 17.35 261.618 17.59 262.078 17.77C262.538 17.93 263.218 18.14 264.118 18.4C265.318 18.72 266.298 19.05 267.058 19.39C267.838 19.71 268.508 20.19 269.068 20.83C269.628 21.47 269.918 22.32 269.938 23.38C269.938 24.32 269.678 25.16 269.158 25.9C268.638 26.64 267.898 27.22 266.938 27.64C265.998 28.06 264.888 28.27 263.608 28.27Z" fill="black"/>
<path d="M13.9105 0.467071C15.2011 0.460841 16.5239 0.410021 17.8106 0.505431C21.1313 0.751761 25.5982 3.21324 27.775 5.7695C28.1245 6.17998 28.3934 6.6032 28.351 7.15893C28.0937 7.80538 27.3693 8.20578 26.8224 8.59701C23.9894 5.64315 21.0633 3.36717 16.8361 3.04909C13.0124 2.76139 9.84008 4.21501 6.9897 6.66144C6.80273 6.84624 6.62165 7.03666 6.44644 7.23271C3.48696 10.5377 2.89091 14.0368 3.13277 18.3494C2.462 19.2067 1.73192 19.8225 0.835942 20.4318C0.739657 20.0886 0.666833 19.742 0.60416 19.3914C-0.183065 14.9902 0.63119 10.6169 3.21674 6.91911C5.75179 3.2936 9.60417 1.23413 13.9105 0.467071Z" fill="black"/>
<path d="M6.45387 25.5595C7.67231 25.5393 9.19585 27.0948 10.3031 27.6563C10.8659 27.9453 11.4473 28.19 12.0475 28.3902C12.6477 28.5905 13.2595 28.744 13.8831 28.8508C18.1036 29.5507 21.3482 27.9859 24.682 25.5938C25.4207 26.079 26.1439 26.4366 26.3578 27.3476C26.2322 27.8957 25.7998 28.1238 25.3626 28.421C23.62 29.4651 21.9299 30.4281 19.9616 30.9959C15.4552 32.2959 11.1089 31.1804 7.11827 28.9646C6.2524 28.4839 5.65355 27.9894 5.37436 27.0114C5.41686 26.4593 6.08 25.9419 6.45387 25.5595Z" fill="black"/>
<path d="M7.51352 15.2213L5.41754 17.3173V14.1733L7.51352 12.0773L15.5481 18.7146L23.5827 12.0773L28.8227 16.2693V19.4132L23.5827 15.2213L15.5481 22.2079L7.51352 15.2213Z" fill="black"/>
</svg>
