<svg width="102" height="53" viewBox="0 0 102 53" fill="none" xmlns="http://www.w3.org/2000/svg">
<path d="M66.6432 18.8384V20.2358H60.9215V24.6734H65.5668V26.0707H60.9215V32.0001H59.2031V18.8384H66.6432Z" fill="#8C8C8C"/>
<path d="M69.6061 19.9714C69.2788 19.9714 69.0018 19.8581 68.7752 19.6315C68.5486 19.4049 68.4353 19.128 68.4353 18.8006C68.4353 18.4733 68.5486 18.1964 68.7752 17.9698C69.0018 17.7432 69.2788 17.6299 69.6061 17.6299C69.9208 17.6299 70.1852 17.7432 70.3992 17.9698C70.6258 18.1964 70.7391 18.4733 70.7391 18.8006C70.7391 19.128 70.6258 19.4049 70.3992 19.6315C70.1852 19.8581 69.9208 19.9714 69.6061 19.9714ZM70.4369 21.652V32.0001H68.7186V21.652H70.4369Z" fill="#8C8C8C"/>
<path d="M75.084 18.0264V32.0001H73.3656V18.0264H75.084Z" fill="#8C8C8C"/>
<path d="M80.1087 23.0683V29.1676C80.1087 29.6712 80.2158 30.0299 80.4298 30.244C80.6438 30.4454 81.0151 30.5461 81.5439 30.5461H82.8091V32.0001H81.2606C80.3039 32.0001 79.5863 31.7798 79.1079 31.3392C78.6296 30.8986 78.3904 30.1747 78.3904 29.1676V23.0683H77.0496V21.652H78.3904V19.0461H80.1087V21.652H82.8091V23.0683H80.1087Z" fill="#8C8C8C"/>
<path d="M86.6095 23.3327C86.9116 22.741 87.3396 22.2815 87.8936 21.9542C88.4601 21.6269 89.1461 21.4632 89.9518 21.4632V23.2382H89.4986C87.5725 23.2382 86.6095 24.2831 86.6095 26.3729V32.0001H84.8911V21.652H86.6095V23.3327Z" fill="#8C8C8C"/>
<path d="M96.4486 32.1701C95.4792 32.1701 94.598 31.9497 93.8049 31.5091C93.0244 31.0685 92.4076 30.4454 91.9544 29.6397C91.5137 28.8214 91.2934 27.8772 91.2934 26.8072C91.2934 25.7497 91.52 24.8181 91.9732 24.0125C92.439 23.1942 93.0685 22.571 93.8616 22.143C94.6547 21.7024 95.5422 21.4821 96.5241 21.4821C97.5061 21.4821 98.3936 21.7024 99.1867 22.143C99.9798 22.571 100.603 23.1879 101.056 23.9936C101.522 24.7993 101.755 25.7371 101.755 26.8072C101.755 27.8772 101.516 28.8214 101.037 29.6397C100.571 30.4454 99.9357 31.0685 99.13 31.5091C98.3243 31.9497 97.4305 32.1701 96.4486 32.1701ZM96.4486 30.6594C97.0654 30.6594 97.6445 30.5146 98.1859 30.2251C98.7272 29.9355 99.1615 29.5012 99.4888 28.9221C99.8287 28.343 99.9987 27.6381 99.9987 26.8072C99.9987 25.9763 99.835 25.2713 99.5077 24.6923C99.1804 24.1132 98.7524 23.6851 98.2236 23.4082C97.6949 23.1186 97.1221 22.9739 96.5052 22.9739C95.8758 22.9739 95.2967 23.1186 94.768 23.4082C94.2518 23.6851 93.8364 24.1132 93.5217 24.6923C93.2069 25.2713 93.0496 25.9763 93.0496 26.8072C93.0496 27.6506 93.2007 28.3619 93.5028 28.941C93.8175 29.5201 94.2329 29.9544 94.7491 30.244C95.2652 30.5209 95.8317 30.6594 96.4486 30.6594Z" fill="#8C8C8C"/>
<path fill-rule="evenodd" clip-rule="evenodd" d="M24.2327 12.244C24.1945 12.2436 24.1563 12.2452 24.1183 12.2486H24.109C23.8555 12.2612 23.613 12.3561 23.4183 12.519C23.2237 12.6818 23.0874 12.9036 23.0301 13.1509C22.9728 13.3981 22.9977 13.6573 23.101 13.8891C23.2043 14.1209 23.3804 14.3128 23.6025 14.4355C23.6072 14.4387 23.6118 14.4418 23.6165 14.4449L32.4505 23.2835V33.2564C32.4514 33.4722 32.512 33.6835 32.6257 33.8668C32.7395 34.0502 32.9018 34.1984 33.0947 34.295L37.7112 36.629C37.889 36.7196 38.0871 36.7631 38.2865 36.7553C38.4859 36.7475 38.68 36.6887 38.8502 36.5845C39.0204 36.4803 39.1611 36.3342 39.2587 36.1602C39.3564 35.9861 39.4078 35.7899 39.408 35.5904V23.2298L48.3236 14.3188C48.4435 14.2204 48.5425 14.099 48.615 13.9619C48.6874 13.8247 48.7318 13.6745 48.7454 13.52C48.7591 13.3655 48.7419 13.2098 48.6947 13.062C48.6475 12.9143 48.5714 12.7774 48.4707 12.6594L48.466 12.6501C48.3658 12.534 48.2436 12.4388 48.1066 12.37L48.1019 12.3677C48.0691 12.3521 48.0356 12.3381 48.0015 12.3256L47.9922 12.321C47.9593 12.3078 47.9258 12.2961 47.8918 12.286H47.8825C47.8479 12.2766 47.8128 12.2688 47.7775 12.2626H47.7681C47.7295 12.256 47.6906 12.2513 47.6515 12.2486C47.6142 12.2453 47.5768 12.2437 47.5394 12.244C47.5199 12.245 47.5005 12.2466 47.4811 12.2486H24.3494C24.3106 12.2451 24.2716 12.2436 24.2327 12.244ZM27.0544 14.5826H44.755L37.5385 21.7991C37.3629 21.9695 37.2454 22.1908 37.2024 22.4316C37.1147 22.6026 37.0706 22.7926 37.074 22.9848V33.6905L34.7868 32.5329V22.9918C34.7886 22.7498 34.7152 22.5133 34.5767 22.3149C34.5215 22.1193 34.4161 21.9415 34.271 21.7991L27.0544 14.5826Z" fill="#8C8C8C"/>
<path d="M0.625 0.550293H2.34167V52.0503H0.625V0.550293Z" fill="#A4A4A4"/>
</svg>
