<svg width="29" height="12" viewBox="0 0 29 12" fill="none" xmlns="http://www.w3.org/2000/svg">
<path d="M1.59444 9.6354H3.57604C3.78524 10.8998 4.88324 11.8634 6.20684 11.8634C7.53044 11.8634 8.62844 10.8998 8.83768 9.6354H20.9152C21.1245 10.8998 22.2225 11.8634 23.5461 11.8634C24.8697 11.8634 25.9677 10.8998 26.1769 9.6354H27.9037C28.3281 9.6354 28.7021 9.3318 28.8229 8.889L28.8769 8.6914C28.9037 8.5938 28.9165 8.4938 28.9165 8.3946C28.9165 8.153 28.8397 7.9158 28.6941 7.7258C28.5509 7.5382 28.4721 7.3018 28.4721 7.0574V6.1154L28.3833 5.6186C28.2733 5.0018 28.0089 4.4302 27.6189 3.9666L25.6425 1.6166C25.5401 1.495 25.4853 1.3374 25.4853 1.1762C25.4853 1.1214 25.4917 1.0666 25.5045 1.0126C25.6081 0.575398 25.2825 0.158598 24.8697 0.199398L23.2925 0.355398L18.2697 0.150198C17.7001 0.126998 17.1301 0.133798 16.5609 0.170198L12.9737 0.400999C12.6073 0.423799 12.2485 0.522998 11.9169 0.693798L8.03008 2.6954C7.79768 2.815 7.55208 2.8998 7.29888 2.9474L3.60368 3.6474C2.99048 3.7634 2.48328 4.2314 2.27688 4.871L2.01488 5.685C1.92368 5.9678 1.77168 6.2226 1.57128 6.4278L1.38368 6.6198C1.29728 6.7086 1.23612 6.8218 1.20688 6.947L0.97168 7.9554V8.957C0.97164 9.33184 1.25044 9.6354 1.59444 9.6354ZM26.0957 4.61408L27.2617 4.85912C27.342 4.876 27.4088 4.9312 27.4405 5.00684L27.7722 5.7978C27.8077 5.88252 27.7938 5.97992 27.736 6.05132L27.6211 6.19332C27.5452 6.28712 27.4129 6.31316 27.3071 6.25512L26.3083 5.70744C26.27 5.68644 26.2379 5.65576 26.2152 5.61844L25.8312 4.98808C25.7176 4.80144 25.8818 4.56912 26.0957 4.61408ZM18.1764 5.86876H17.3098C17.122 5.86876 16.9698 5.71656 16.9698 5.52876C16.9698 5.341 17.122 5.18876 17.3098 5.18876H18.1764C18.3642 5.18876 18.5164 5.341 18.5164 5.52876C18.5164 5.71652 18.3642 5.86876 18.1764 5.86876ZM22.1225 10.2666C21.9825 10.0806 21.8784 9.86704 21.8201 9.63544C21.8041 9.57384 21.7917 9.51104 21.7825 9.44704C21.8565 9.46384 21.9388 9.47344 22.0261 9.47344C22.1533 9.47344 22.2704 9.45344 22.3657 9.41944C22.3797 9.49424 22.4004 9.56664 22.4277 9.63544C22.4604 9.72024 22.5029 9.80024 22.5536 9.87424C22.4625 9.91784 22.3657 9.98624 22.2757 10.0762C22.214 10.1374 22.1628 10.2026 22.1225 10.2666ZM23.3232 8.01624C23.1572 8.04744 23.0032 8.11264 22.8684 8.20464C22.8252 8.11344 22.7568 8.01624 22.6668 7.92664C22.6052 7.86504 22.5404 7.81384 22.4764 7.77344C22.7112 7.59624 22.9912 7.47624 23.2956 7.43344C23.2788 7.50744 23.2692 7.58984 23.2692 7.67704C23.2692 7.80424 23.2896 7.9214 23.3232 8.01624ZM22.5536 8.5194C22.4616 8.6538 22.3964 8.8082 22.3657 8.9742C22.2704 8.9406 22.1532 8.9202 22.0261 8.9202C21.9388 8.9202 21.8565 8.9298 21.7825 8.9466C21.8257 8.6422 21.9452 8.3622 22.1225 8.1274C22.1629 8.1914 22.2141 8.2562 22.2757 8.3178C22.3657 8.40784 22.4625 8.47624 22.5536 8.5194ZM23.2957 10.9606C22.9913 10.9174 22.7113 10.7974 22.4765 10.6206C22.5405 10.5802 22.6053 10.529 22.6669 10.4674C22.7569 10.3774 22.8253 10.2802 22.8685 10.189C23.0033 10.281 23.1573 10.3462 23.3233 10.3774C23.2897 10.4726 23.2693 10.5898 23.2693 10.717C23.2692 10.8042 23.2788 10.8866 23.2957 10.9606ZM23.546 9.67824C23.4756 9.67824 23.4084 9.66304 23.348 9.63544C23.1808 9.55984 23.0644 9.39184 23.0644 9.19704C23.0644 8.93144 23.2804 8.71544 23.546 8.71544C23.8116 8.71544 24.0276 8.93144 24.0276 9.19704C24.0276 9.39184 23.9112 9.55984 23.744 9.63544C23.6836 9.663 23.6164 9.67824 23.546 9.67824ZM23.796 10.9606C23.8128 10.8866 23.8228 10.8042 23.8228 10.717C23.8228 10.5898 23.8024 10.4726 23.7684 10.3774C23.9348 10.3462 24.0888 10.281 24.2236 10.189C24.2668 10.2802 24.3352 10.3774 24.4252 10.4674C24.4868 10.529 24.5516 10.5802 24.6157 10.6206C24.3809 10.7974 24.1009 10.9174 23.796 10.9606ZM25.272 9.6354C25.2136 9.867 25.1093 10.0806 24.9696 10.2666C24.9292 10.2026 24.878 10.1374 24.8164 10.0762C24.7264 9.9862 24.6292 9.9178 24.5384 9.8742C24.5893 9.8002 24.6316 9.7202 24.6644 9.6354C24.6916 9.5666 24.7124 9.4942 24.7264 9.4194C24.8216 9.4534 24.9388 9.4734 25.066 9.4734C25.1532 9.4734 25.2356 9.4638 25.3096 9.447C25.3004 9.511 25.288 9.57384 25.272 9.6354ZM24.9696 8.12744C25.1464 8.36224 25.2664 8.64224 25.3096 8.94664C25.2356 8.92984 25.1532 8.92024 25.066 8.92024C24.9388 8.92024 24.8216 8.94064 24.7264 8.97424C24.6956 8.80824 24.6304 8.65384 24.5384 8.51944C24.6293 8.47624 24.7264 8.40784 24.8164 8.31784C24.878 8.25624 24.9292 8.1914 24.9696 8.12744ZM24.4252 7.92664C24.3352 8.01624 24.2668 8.11344 24.2236 8.20464C24.0888 8.11264 23.9348 8.04744 23.7684 8.01624C23.8025 7.92144 23.8228 7.80424 23.8228 7.67704C23.8228 7.58984 23.8128 7.50744 23.796 7.43344C24.1004 7.47624 24.3808 7.59624 24.6156 7.77344C24.5516 7.81384 24.4868 7.865 24.4252 7.92664ZM20.1829 1.2292L23.2516 1.35456C23.2652 1.35512 23.2789 1.3554 23.2925 1.3554C23.3253 1.3554 23.3582 1.35376 23.3909 1.35052L23.874 1.30272C23.947 1.29548 24.0055 1.36228 23.9887 1.43376L23.8063 2.20912C23.649 2.87748 23.1014 3.38324 22.4226 3.4868L20.966 3.6478C20.8937 3.6558 20.8358 3.59112 20.8495 3.51972L20.8498 3.51824C20.9499 2.99416 20.8367 2.46472 20.531 2.02736L20.0908 1.39748C20.04 1.32492 20.0944 1.2256 20.1829 1.2292ZM8.46844 3.5944C8.47484 3.59112 8.48128 3.58784 8.48768 3.58456L12.3746 1.58288C12.5837 1.4752 12.806 1.4134 13.0357 1.39912L16.625 1.1682C16.9508 1.14736 17.2813 1.1368 17.607 1.1368C17.8135 1.1368 18.0228 1.14108 18.2289 1.14944C18.5328 1.16184 18.8133 1.31544 18.9875 1.56464L19.7114 2.60028C20.021 3.04328 19.9042 3.6544 19.4532 3.95216L19.1793 4.13288C19.0251 4.23464 18.8448 4.2898 18.6601 4.29168L8.65268 4.3938C8.503 4.39532 8.36016 4.31684 8.28232 4.18012C8.16324 3.97088 8.25376 3.70328 8.46844 3.5944ZM4.78324 10.2666C4.64364 10.0806 4.53924 9.86704 4.48088 9.63544C4.46488 9.57384 4.45248 9.51104 4.44324 9.44704C4.51724 9.46384 4.59964 9.47344 4.68684 9.47344C4.81408 9.47344 4.93124 9.45344 5.02644 9.41944C5.04044 9.49424 5.06124 9.56664 5.08844 9.63544C5.12124 9.72024 5.16364 9.80024 5.21444 9.87424C5.1236 9.91784 5.02644 9.98624 4.93644 10.0762C4.87484 10.1374 4.82364 10.2026 4.78324 10.2666ZM5.95684 10.9606C5.65248 10.9174 5.37204 10.7974 5.13724 10.6206C5.20128 10.5802 5.26608 10.529 5.32768 10.4674C5.41768 10.3774 5.48608 10.2802 5.52928 10.189C5.66408 10.281 5.81808 10.3462 5.98448 10.3774C5.95044 10.4726 5.93008 10.5898 5.93008 10.717C5.93004 10.8042 5.94004 10.8866 5.95684 10.9606ZM6.45724 10.9606C6.47408 10.8866 6.48364 10.8042 6.48364 10.717C6.48364 10.5898 6.46324 10.4726 6.42964 10.3774C6.59564 10.3462 6.74964 10.281 6.88444 10.189C6.92764 10.2802 6.99604 10.3774 7.08604 10.4674C7.14764 10.529 7.21244 10.5802 7.27644 10.6206C7.04164 10.7974 6.76164 10.9174 6.45724 10.9606ZM7.93284 9.6354C7.87444 9.867 7.7704 10.0806 7.6304 10.2666C7.59 10.2026 7.5388 10.1374 7.4772 10.0762C7.3872 9.9862 7.2904 9.9178 7.19924 9.8742C7.25004 9.8002 7.29244 9.7202 7.3252 9.6354C7.35244 9.5666 7.3732 9.4942 7.3872 9.4194C7.48244 9.4534 7.59964 9.4734 7.7268 9.4734C7.81404 9.4734 7.8964 9.4638 7.9704 9.447C7.96124 9.511 7.94884 9.57384 7.93284 9.6354ZM7.47724 8.31784C7.53884 8.25624 7.59004 8.19144 7.63044 8.12744C7.80768 8.36224 7.92724 8.64224 7.97044 8.94664C7.89644 8.92984 7.81408 8.92024 7.72684 8.92024C7.59964 8.92024 7.48248 8.94064 7.38724 8.97424C7.35644 8.80824 7.29128 8.65384 7.19928 8.51944C7.29044 8.47624 7.38724 8.40784 7.47724 8.31784ZM6.45724 7.4334C6.76164 7.4762 7.04164 7.5962 7.27644 7.7734C7.21244 7.8138 7.14764 7.865 7.08604 7.9266C6.99604 8.0162 6.92764 8.1134 6.88444 8.2046C6.74964 8.1126 6.59564 8.0474 6.42964 8.0162C6.46324 7.9214 6.48364 7.8042 6.48364 7.677C6.48364 7.5898 6.47408 7.50744 6.45724 7.4334ZM6.68844 9.19704C6.68844 9.39184 6.57204 9.55984 6.40484 9.63544C6.34444 9.66304 6.27724 9.67824 6.20684 9.67824C6.13644 9.67824 6.06924 9.66304 6.00884 9.63544C5.84164 9.55984 5.72524 9.39184 5.72524 9.19704C5.72524 8.93144 5.94124 8.71544 6.20684 8.71544C6.47248 8.7154 6.68844 8.9314 6.68844 9.19704ZM5.95684 7.4334C5.94004 7.5074 5.93004 7.5898 5.93004 7.677C5.93004 7.8042 5.95044 7.9214 5.98444 8.0162C5.81804 8.0474 5.66404 8.1126 5.52924 8.2046C5.48604 8.1134 5.41764 8.0162 5.32764 7.9266C5.26604 7.865 5.20124 7.8138 5.1372 7.7734C5.37204 7.59624 5.65248 7.47624 5.95684 7.4334ZM4.93644 8.31784C5.02644 8.40784 5.12364 8.47624 5.21444 8.51944C5.12244 8.65384 5.0572 8.80824 5.02644 8.97424C4.93124 8.94064 4.81404 8.92024 4.68684 8.92024C4.59964 8.92024 4.51724 8.92984 4.44324 8.94664C4.48644 8.64224 4.60644 8.36224 4.78324 8.12744C4.82364 8.1914 4.87484 8.25624 4.93644 8.31784ZM2.59416 5.79784L2.9258 5.00688C2.95752 4.93124 3.0244 4.876 3.10464 4.85916L4.2706 4.61412C4.48456 4.56916 4.6488 4.80148 4.53508 4.98816L4.15112 5.61852C4.1284 5.65584 4.09628 5.68652 4.05796 5.70752L3.05924 6.2552C2.9534 6.31324 2.8212 6.2872 2.74524 6.1934L2.63028 6.0514C2.57252 5.97996 2.5586 5.88256 2.59416 5.79784Z" fill="#231F20"/>
</svg>
