<svg width="28" height="28" viewBox="0 0 28 28" fill="none" xmlns="http://www.w3.org/2000/svg">
<path fill-rule="evenodd" clip-rule="evenodd" d="M6.12496 20.4168C7.25254 20.4168 8.16663 19.5027 8.16663 18.3752C8.16663 17.2476 7.25254 16.3335 6.12496 16.3335C4.99738 16.3335 4.08329 17.2476 4.08329 18.3752C4.08329 19.5027 4.99738 20.4168 6.12496 20.4168ZM6.12496 22.1668C8.21907 22.1668 9.91663 20.4693 9.91663 18.3752C9.91663 16.2811 8.21907 14.5835 6.12496 14.5835C4.03085 14.5835 2.33329 16.2811 2.33329 18.3752C2.33329 20.4693 4.03085 22.1668 6.12496 22.1668Z" fill="#565656"/>
<path fill-rule="evenodd" clip-rule="evenodd" d="M11.1374 6.17154C11.233 5.96539 11.4395 5.8335 11.6667 5.8335H14.5834V7.00016H12.0393L6.6543 18.6205C6.51885 18.9128 6.17206 19.0399 5.87975 18.9044C5.58744 18.769 5.46033 18.4222 5.59578 18.1299L11.1374 6.17154Z" fill="#565656"/>
<path fill-rule="evenodd" clip-rule="evenodd" d="M21.875 20.4168C23.0025 20.4168 23.9166 19.5027 23.9166 18.3752C23.9166 17.2476 23.0025 16.3335 21.875 16.3335C20.7474 16.3335 19.8333 17.2476 19.8333 18.3752C19.8333 19.5027 20.7474 20.4168 21.875 20.4168ZM21.875 22.1668C23.969 22.1668 25.6666 20.4693 25.6666 18.3752C25.6666 16.2811 23.969 14.5835 21.875 14.5835C19.7809 14.5835 18.0833 16.2811 18.0833 18.3752C18.0833 20.4693 19.7809 22.1668 21.875 22.1668Z" fill="#565656"/>
<path fill-rule="evenodd" clip-rule="evenodd" d="M15.4583 18.3748C15.4583 18.697 15.7194 18.9582 16.0416 18.9582H21.8749C22.1971 18.9582 22.4583 18.697 22.4583 18.3748C22.4583 18.0527 22.1971 17.7915 21.8749 17.7915H16.0416C15.7194 17.7915 15.4583 18.0527 15.4583 18.3748Z" fill="#565656"/>
<path d="M11.6359 13.9382L11.0526 12.7716C10.8884 12.4432 10.8884 12.0565 11.0526 11.7281L11.6359 10.5614C11.8335 10.1662 12.2375 9.9165 12.6794 9.9165H14.5935C15.1018 9.9165 15.6068 9.99957 16.0884 10.1624L17.923 10.7829C18.2934 10.9081 18.4381 11.3553 18.2112 11.6739L16.3134 14.3383C16.204 14.4919 16.0269 14.5832 15.8383 14.5832H12.6794C12.2375 14.5832 11.8335 14.3335 11.6359 13.9382Z" fill="#565656"/>
<path d="M25.0833 11.0835H20.3604C20.1811 11.0835 20.0118 11.166 19.9012 11.3071L18.2196 13.4538C18.0603 13.6572 18.2246 13.952 18.4815 13.9235L25.1477 13.1828C25.4431 13.15 25.6666 12.9003 25.6666 12.6031V11.6668C25.6666 11.3447 25.4055 11.0835 25.0833 11.0835Z" fill="#565656"/>
<path d="M11.6667 15.75H15.1667C15.8111 15.75 16.3334 16.2723 16.3334 16.9167V18.0833C16.3334 18.7277 15.8111 19.25 15.1667 19.25H12.8334C12.189 19.25 11.6667 18.7277 11.6667 18.0833V15.75Z" fill="#565656"/>
<path d="M8.56979 8.75H6.27688C6.18174 8.75 6.09255 8.79643 6.03795 8.87442L4.40461 11.2078C4.26928 11.4011 4.40759 11.6667 4.64355 11.6667H7.40312C7.5136 11.6667 7.61458 11.6043 7.66399 11.5054L8.83065 9.1721C8.9276 8.9782 8.78661 8.75 8.56979 8.75Z" fill="#565656"/>
</svg>
