<svg width="27" height="14" viewBox="0 0 27 14" fill="none" xmlns="http://www.w3.org/2000/svg">
<path d="M8.59091 0L15.3409 0V4.66667L27 4.66667V10.5H24.5455C24.5455 11.4283 24.1575 12.3185 23.4671 12.9749C22.7766 13.6313 21.8401 14 20.8636 14C19.8872 14 18.9507 13.6313 18.2602 12.9749C17.5697 12.3185 17.1818 11.4283 17.1818 10.5H9.81818C9.81818 11.4283 9.43028 12.3185 8.7398 12.9749C8.04933 13.6313 7.11284 14 6.13636 14C5.15988 14 4.2234 13.6313 3.53292 12.9749C2.84245 12.3185 2.45455 11.4283 2.45454 10.5H0V7C0 5.705 1.09227 4.66667 2.45454 4.66667H4.90909L8.59091 0ZM13.5 1.75L9.20455 1.75L6.79909 4.66667L13.5 4.66667V1.75ZM20.8636 8.75C20.3754 8.75 19.9072 8.93437 19.5619 9.26256C19.2167 9.59075 19.0227 10.0359 19.0227 10.5C19.0227 10.9641 19.2167 11.4092 19.5619 11.7374C19.9072 12.0656 20.3754 12.25 20.8636 12.25C21.3519 12.25 21.8201 12.0656 22.1654 11.7374C22.5106 11.4092 22.7045 10.9641 22.7045 10.5C22.7045 10.0359 22.5106 9.59075 22.1654 9.26256C21.8201 8.93437 21.3519 8.75 20.8636 8.75ZM6.13636 8.75C5.64812 8.75 5.17988 8.93437 4.83464 9.26256C4.48941 9.59075 4.29545 10.0359 4.29545 10.5C4.29545 10.9641 4.48941 11.4092 4.83464 11.7374C5.17988 12.0656 5.64812 12.25 6.13636 12.25C6.6246 12.25 7.09284 12.0656 7.43808 11.7374C7.78332 11.4092 7.97727 10.9641 7.97727 10.5C7.97727 10.0359 7.78332 9.59075 7.43808 9.26256C7.09284 8.93437 6.6246 8.75 6.13636 8.75Z" fill="#565656"/>
</svg>
