<svg width="28" height="12" viewBox="0 0 28 12" fill="none" xmlns="http://www.w3.org/2000/svg">
<path d="M0.163574 8.68413V8.86565C0.163574 9.08021 0.337694 9.25433 0.552214 9.25433H2.40537C2.69997 10.3154 3.67281 11.0938 4.82753 11.0938C5.98225 11.0938 6.95505 10.3154 7.24969 9.25433H20.9057C21.2003 10.3154 22.1732 11.0938 23.3279 11.0938C24.4826 11.0938 25.4554 10.3154 25.7501 9.25433H27.4477C27.6623 9.25433 27.8364 9.08021 27.8364 8.86565V8.68413C27.8364 8.46961 27.6623 8.29549 27.4477 8.29549H27.4442V6.00977C27.4442 5.90173 27.4291 5.79485 27.3995 5.69221L27.1551 4.84881C27.0548 4.50369 26.7998 4.24329 26.4842 4.16361L25.1278 3.82161C24.7317 3.72169 24.3559 3.53981 24.0193 3.28525L21.9345 1.70961C21.4774 1.36409 20.9496 1.15421 20.4005 1.09865C19.1221 0.97037 17.8403 0.90625 16.5585 0.90625C15.0455 0.90625 13.5324 0.995649 12.0259 1.17445L11.0026 1.29573C10.549 1.34977 10.1094 1.50445 9.70949 1.75085L7.12645 3.34477C6.73625 3.58533 6.30793 3.73885 5.86561 3.79601L2.58141 4.22081C1.71977 4.33237 1.02833 5.06925 0.885695 6.02809L0.883734 6.04129L0.632255 6.37245C0.489615 6.56017 0.411494 6.79841 0.411494 7.04485V7.99669C0.411494 8.10553 0.426254 8.21005 0.453854 8.30841C0.287174 8.35225 0.163574 8.50341 0.163574 8.68413ZM25.9739 5.39997H26.5137C26.5631 5.39997 26.6093 5.42445 26.6369 5.46529L26.703 5.56245C26.8465 5.77309 26.923 6.02221 26.923 6.27681V6.41673C26.923 6.49913 26.8562 6.56597 26.7738 6.56597H26.3066C26.2448 6.56597 26.1893 6.52789 26.1675 6.47037L25.8348 5.60249C25.7971 5.50489 25.8693 5.39997 25.9739 5.39997ZM13.9125 6.20645H12.9409C12.7586 6.20645 12.6105 6.05837 12.6105 5.87609C12.6105 5.69381 12.7586 5.54573 12.9409 5.54573H13.9125C14.0948 5.54573 14.2429 5.69381 14.2429 5.87609C14.2429 6.05837 14.0948 6.20645 13.9125 6.20645ZM21.1933 6.20645H20.2217C20.0394 6.20645 19.8913 6.05837 19.8913 5.87609C19.8913 5.69381 20.0394 5.54573 20.2217 5.54573H21.1933C21.376 5.54573 21.5237 5.69381 21.5237 5.87609C21.5237 6.05837 21.376 6.20645 21.1933 6.20645ZM21.8261 8.23329C21.865 8.06461 21.9314 7.90681 22.0208 7.76417C22.1456 7.81585 22.2925 7.79761 22.4017 7.70857C22.4114 7.70041 22.4211 7.69185 22.4301 7.68293C22.4394 7.67361 22.4479 7.66385 22.4557 7.65413C22.5447 7.54533 22.5633 7.39841 22.5117 7.27365C22.6543 7.18425 22.8121 7.11781 22.9808 7.07893C23.0371 7.21493 23.1712 7.31093 23.3279 7.31093C23.4845 7.31093 23.6186 7.21493 23.6749 7.07893C23.8436 7.11781 24.0014 7.18425 24.1441 7.27365C24.0881 7.40969 24.1149 7.57213 24.2257 7.68293C24.3364 7.79329 24.4989 7.82049 24.6349 7.76413C24.7243 7.90677 24.7908 8.06457 24.8297 8.23325C24.6936 8.28961 24.5976 8.42369 24.5976 8.58033C24.5976 8.73737 24.6936 8.87145 24.83 8.92781C24.8036 9.04209 24.7647 9.15129 24.7146 9.25429C24.6905 9.30329 24.6633 9.35069 24.6345 9.39653C24.4985 9.34057 24.336 9.36777 24.2256 9.47817C24.1149 9.58893 24.0877 9.75141 24.144 9.88745C24.0014 9.97685 23.8436 10.0433 23.6749 10.0822C23.6185 9.94617 23.4845 9.85017 23.3278 9.85017C23.1712 9.85017 23.0371 9.94617 22.9807 10.0822C22.8121 10.0433 22.6543 9.97685 22.5116 9.88745C22.568 9.75141 22.5408 9.58897 22.43 9.47817C22.3196 9.36777 22.1575 9.34061 22.0215 9.39653C21.9927 9.35069 21.9655 9.30325 21.9415 9.25429C21.8913 9.15129 21.8521 9.04209 21.8256 8.92781C21.9621 8.87145 22.0581 8.73737 22.0581 8.58033C22.0581 8.42373 21.9621 8.28965 21.8261 8.23329ZM15.466 4.22617L15.9002 2.23585C15.9402 2.05201 16.1062 1.92337 16.2939 1.92997L19.9831 2.06525C20.1032 2.06949 20.2143 2.12937 20.2847 2.22689L21.5995 4.05985C21.8129 4.35757 21.6003 4.77149 21.2342 4.77149H15.9056C15.6187 4.77149 15.405 4.50641 15.466 4.22617ZM7.63677 4.17141L10.2198 2.57789C10.5004 2.40457 10.8024 2.29805 11.1173 2.26073L12.1402 2.13905C13.0334 2.03297 13.9359 1.95989 14.8379 1.91829C14.9689 1.91245 15.0669 2.03645 15.0323 2.16237L14.5142 4.03689C14.3941 4.47101 13.9988 4.77145 13.5483 4.77145H8.50505C8.16653 4.77145 7.85013 4.60161 7.66321 4.31901L7.58585 4.20205C7.60297 4.19197 7.62005 4.18189 7.63677 4.17141ZM3.32573 8.23329C3.33545 8.19129 3.34673 8.14973 3.35993 8.10893C3.38637 8.02729 3.41901 7.94881 3.45789 7.87381C3.47733 7.83649 3.49829 7.79997 3.52045 7.76421C3.64521 7.81589 3.79213 7.79765 3.90133 7.70861C3.91105 7.70045 3.92077 7.69189 3.92973 7.68297C3.93905 7.67365 3.94761 7.66389 3.95537 7.65417C4.04429 7.54549 4.06297 7.39877 4.01149 7.27409C4.01453 7.27221 4.01741 7.27013 4.02049 7.26825C4.02885 7.26309 4.03729 7.25817 4.04573 7.25317C4.07045 7.23861 4.09537 7.22425 4.12097 7.21109C4.14909 7.19653 4.17769 7.18281 4.20677 7.17005C4.20685 7.17001 4.20693 7.16997 4.20701 7.16993C4.20789 7.16953 4.20877 7.16921 4.20965 7.16881C4.23781 7.15645 4.26641 7.14485 4.29541 7.13417C4.29561 7.13409 4.29581 7.13401 4.29601 7.13397C4.29637 7.13385 4.29673 7.13373 4.29709 7.13361C4.32657 7.12277 4.35645 7.11277 4.38673 7.10377C4.38693 7.10369 4.38713 7.10365 4.38733 7.10361C4.41789 7.09449 4.44885 7.08629 4.48013 7.07905C4.48021 7.07905 4.48033 7.07901 4.48041 7.07901C4.53677 7.21501 4.67085 7.31101 4.82749 7.31101C4.98413 7.31101 5.11821 7.21501 5.17457 7.07901H5.17461C5.17473 7.07901 5.17481 7.07905 5.17489 7.07905C5.20621 7.08633 5.23713 7.09449 5.26769 7.10361C5.26789 7.10365 5.26809 7.10373 5.26829 7.10377C5.29857 7.11277 5.32845 7.12277 5.35793 7.13361C5.35829 7.13373 5.35865 7.13385 5.35901 7.13397C5.35921 7.13405 5.35941 7.13413 5.35961 7.13417C5.38861 7.14489 5.41717 7.15649 5.44537 7.16881C5.44625 7.16921 5.44713 7.16953 5.44801 7.16993C5.44809 7.16993 5.44817 7.17001 5.44825 7.17005C5.47733 7.18285 5.50593 7.19657 5.53405 7.21109C5.55977 7.22433 5.58477 7.23873 5.60961 7.25337C5.61793 7.25829 5.62629 7.26317 5.63453 7.26825C5.63525 7.26869 5.63593 7.26917 5.63665 7.26961C5.63897 7.27105 5.64121 7.27265 5.64353 7.27409C5.58781 7.41005 5.61465 7.57229 5.72529 7.68297C5.83605 7.79333 5.99853 7.82053 6.13453 7.76417C6.15669 7.79993 6.17769 7.83645 6.19713 7.87377C6.23601 7.94877 6.26865 8.02729 6.29505 8.10889C6.30825 8.14969 6.31953 8.19125 6.32925 8.23325C6.19321 8.28961 6.09721 8.42369 6.09721 8.58033C6.09721 8.73737 6.19321 8.87145 6.32965 8.92781C6.32305 8.95733 6.31529 8.98649 6.30673 9.01525C6.29897 9.04209 6.29001 9.06889 6.28069 9.09533C6.27601 9.10933 6.27057 9.12329 6.26553 9.13733C6.25505 9.16373 6.24413 9.18977 6.23249 9.21545C6.22665 9.22865 6.22045 9.24149 6.21421 9.25433C6.19013 9.30333 6.16289 9.35073 6.13413 9.39657C5.99809 9.34061 5.83565 9.36781 5.72525 9.47821C5.61449 9.58897 5.58729 9.75145 5.64365 9.88749C5.50101 9.97689 5.34321 10.0433 5.17453 10.0822C5.11818 9.94621 4.98409 9.85021 4.82745 9.85021C4.67081 9.85021 4.53673 9.94621 4.48037 10.0822C4.31169 10.0433 4.15389 9.97689 4.01125 9.88749C4.06761 9.75145 4.04041 9.58901 3.92965 9.47821C3.81925 9.36781 3.65721 9.34065 3.52117 9.39657C3.49241 9.35073 3.46521 9.30329 3.44113 9.25433C3.43489 9.24149 3.42869 9.22865 3.42285 9.21545C3.41117 9.18977 3.40033 9.16373 3.38981 9.13733C3.36337 9.06969 3.34201 8.99973 3.32529 8.92781C3.46173 8.87145 3.55773 8.73737 3.55773 8.58033C3.55777 8.42373 3.46177 8.28965 3.32573 8.23329ZM1.68793 5.80025C1.79793 5.51809 1.97245 5.17841 2.21653 5.01009C2.25541 4.98329 2.30205 4.97009 2.34945 4.97009H2.88929C3.06653 4.97009 3.18233 5.15549 3.10461 5.31485L2.89045 5.75401C2.86169 5.81349 2.80961 5.85821 2.74665 5.87761L1.98253 6.11741C1.79013 6.17765 1.61445 5.98837 1.68793 5.80025Z" fill="#231F20"/>
</svg>
