<svg width="28" height="14" viewBox="0 0 28 14" fill="none" xmlns="http://www.w3.org/2000/svg">
<path d="M27.5799 5.27291C27.529 4.87731 27.1671 4.59819 26.7715 4.64915L26.2705 4.71383C26.2536 4.71619 26.2371 4.71895 26.2207 4.72207C26.1521 4.52483 26.067 4.33275 25.9662 4.14927L24.6787 1.80083C24.6391 1.72867 24.6328 1.64327 24.6611 1.56643L24.7701 1.26923C24.8402 1.07907 24.694 0.878714 24.4945 0.891714L12.1972 1.68211C11.3582 1.73583 10.5721 2.11727 10.0037 2.74651L7.97006 4.99731C7.67954 5.31879 7.30042 5.54343 6.8825 5.64227L2.5299 6.67019C1.91866 6.81487 1.42078 7.26383 1.20786 7.86364L0.830299 8.92647C0.781299 9.06451 0.698579 9.18759 0.590739 9.28483L0.358619 9.49339C0.248859 9.59183 0.179459 9.72823 0.164179 9.87607L0.083419 10.6421C0.045779 10.9958 0.319819 11.3035 0.669939 11.3011L2.22562 11.2914C2.5079 12.3389 3.4645 13.1093 4.6011 13.1093C5.74826 13.1093 6.71234 12.324 6.98442 11.2612L20.6762 11.1741C20.6845 11.2137 20.6939 11.2525 20.7045 11.2914C20.9867 12.3389 21.9434 13.1093 23.0799 13.1093C24.2271 13.1093 25.1912 12.324 25.4633 11.2612C25.4731 11.2223 25.4821 11.1832 25.4899 11.1436L26.6586 11.1361H26.8852C27.0883 11.1361 27.2526 10.9715 27.2526 10.7684V9.66119C27.2526 9.45811 27.0883 9.29347 26.8852 9.29347H26.8241C26.8291 9.10759 26.8209 8.92179 26.7986 8.73711L27.2902 8.67364C27.6858 8.62263 27.9649 8.26079 27.914 7.86523L27.5799 5.27291ZM2.96546 8.27099C2.88666 8.45331 2.76394 8.61287 2.6079 8.73639L2.54086 8.78927C2.3723 8.9226 2.17114 9.00807 1.95826 9.03708L1.8187 9.05631C1.64226 9.08019 1.50622 8.90375 1.57446 8.73951L1.93202 7.87463C1.96338 7.79819 2.03318 7.74487 2.1151 7.73387L2.85962 7.63507C3.03722 7.61151 3.17286 7.79072 3.1019 7.9554L2.96546 8.27099ZM5.94546 11.2679C5.71102 11.776 5.19626 12.1292 4.6011 12.1292C4.01222 12.1292 3.50294 11.7838 3.26458 11.2847C3.17246 11.0922 3.12106 10.8766 3.12106 10.6492C3.12106 9.83327 3.78482 9.16916 4.60106 9.16916C5.41694 9.16916 6.08106 9.83331 6.08106 10.6492C6.08114 10.8699 6.0325 11.0796 5.94546 11.2679ZM13.8823 7.71115L12.8468 7.79619C12.6633 7.81115 12.5026 7.67467 12.4873 7.49124C12.4865 7.48216 12.4861 7.47275 12.4861 7.46375C12.4861 7.29203 12.6179 7.14623 12.7923 7.13167L13.8277 7.04659C14.0112 7.03167 14.172 7.16811 14.1873 7.35159C14.1881 7.36063 14.1885 7.37003 14.1885 7.37903C14.1885 7.55079 14.0567 7.69659 13.8823 7.71115ZM14.3296 6.22251L9.19954 6.46439C9.1137 6.46835 9.02862 6.44519 8.95646 6.39735L8.77142 6.27499C8.56206 6.13663 8.52558 5.84415 8.69378 5.65831L8.6969 5.65435L10.7309 3.40359C11.13 2.96176 11.6734 2.69787 12.2603 2.65983L14.6734 2.50487L14.3296 6.22251ZM15.4871 2.45263L18.5536 2.25567C18.8371 2.23723 19.1021 2.39835 19.2162 2.65867L19.8364 4.07363C19.9705 4.38063 19.9897 4.72563 19.8901 5.04555C19.7161 5.60307 19.2123 5.99235 18.6289 6.01979L15.1277 6.18487L15.4871 2.45263ZM19.6753 7.56959L18.6399 7.65468C18.4564 7.66956 18.2957 7.53311 18.2808 7.34963C18.28 7.34023 18.2796 7.33083 18.2796 7.32143C18.2796 7.15007 18.4113 7.00463 18.5854 6.99015L19.6208 6.90507C19.8043 6.89015 19.9654 7.02659 19.9803 7.21007C19.9811 7.21911 19.9815 7.22851 19.9815 7.23751C19.9815 7.40927 19.8498 7.55507 19.6753 7.56959ZM24.4725 11.1498C24.4584 11.1902 24.4419 11.2294 24.4243 11.2679C24.1898 11.776 23.6751 12.1292 23.0799 12.1292C22.491 12.1292 21.9817 11.7838 21.7434 11.2847C21.7249 11.2467 21.7085 11.2079 21.6936 11.1679C21.6328 11.0064 21.5999 10.8315 21.5999 10.6492C21.5999 9.83327 22.2636 9.16916 23.0799 9.16916C23.8957 9.16916 24.5599 9.83331 24.5599 10.6492C24.5599 10.8248 24.5289 10.9934 24.4725 11.1498ZM22.3244 5.94451C22.2147 5.94803 22.1139 5.88491 22.0696 5.78455L20.6982 2.69867C20.6841 2.66695 20.6762 2.63243 20.6751 2.59795C20.6703 2.44895 20.7868 2.32467 20.9358 2.31999L23.6147 2.23335C23.7139 2.23019 23.8068 2.28199 23.8566 2.36779C24.834 4.04815 25.1872 5.04751 25.3135 5.51759C25.3585 5.68499 25.2351 5.85043 25.0618 5.85635L22.3244 5.94451ZM26.0039 9.02884H25.4158C25.3111 9.02884 25.2264 8.94415 25.2264 8.83948V8.20867C25.2264 8.10399 25.3111 8.01931 25.4158 8.01931H25.8753C25.9101 8.01931 25.9435 8.02871 25.9717 8.04595C26.0168 8.07219 26.0501 8.11692 26.0611 8.17103L26.1191 8.45491L26.1897 8.80147C26.2136 8.91907 26.1239 9.02884 26.0039 9.02884Z" fill="#231F20"/>
</svg>
