<svg width="60" height="61" viewBox="0 0 60 61" fill="none" xmlns="http://www.w3.org/2000/svg">
<g clip-path="url(#clip0_504_2058)">
<path d="M45.1515 16.6453C47.9784 16.6453 50.2779 14.3455 50.2779 11.5179C50.2779 8.69026 47.9785 6.39038 45.1515 6.39038C42.3223 6.39038 40.0205 8.69018 40.0205 11.5179C40.0205 14.3455 42.3223 16.6453 45.1515 16.6453ZM45.1515 7.97297C47.1056 7.97297 48.6953 9.56337 48.6953 11.5179C48.6953 13.4723 47.1056 15.0628 45.1515 15.0628C43.195 15.0628 41.6031 13.4723 41.6031 11.5179C41.6031 9.56337 43.1951 7.97297 45.1515 7.97297Z" fill="#313131"/>
<path d="M14.8507 16.5203C17.6779 16.5203 19.9782 14.2205 19.9782 11.3928C19.9782 8.56595 17.6779 6.26648 14.8507 6.26648C12.0216 6.26648 9.71973 8.56595 9.71973 11.3928C9.71973 14.2205 12.0215 16.5203 14.8507 16.5203ZM14.8507 7.84906C16.8052 7.84906 18.3956 9.43914 18.3956 11.3928C18.3956 13.3473 16.8052 14.9377 14.8507 14.9377C12.8943 14.9377 11.3023 13.3473 11.3023 11.3928C11.3022 9.43914 12.8943 7.84906 14.8507 7.84906Z" fill="#313131"/>
<path d="M19.2465 41.3315H19.0965C17.5222 41.3315 16.1526 39.9214 16.1526 38.3472V20.4755C16.1526 19.8804 16.3002 19.268 16.5027 18.6547C16.5826 18.4133 16.564 18.1376 16.4152 17.9315C16.2665 17.7258 16.0505 17.5928 15.7964 17.5928H9.60555C7.13918 17.5932 5.07471 19.842 5.07471 21.7576V36.2376C5.07471 36.6744 5.57997 36.9798 6.01714 36.9798H8.2398V53.2903C8.2398 53.7271 8.65603 53.9921 9.09279 53.9921H19.2465C19.6832 53.9921 20.1089 53.7271 20.1089 53.2903V41.9934C20.1089 41.5563 19.6836 41.3315 19.2465 41.3315ZM18.5264 52.4094H9.8223V36.2373C9.8223 35.8005 9.52996 35.397 9.09271 35.397H6.65721V21.7577C6.65721 20.7271 7.98297 19.1762 9.60547 19.1762H14.7777C14.6989 19.5718 14.57 20.0537 14.57 20.4759V38.3476C14.57 40.5766 16.1526 42.427 18.5264 42.7384V52.4094Z" fill="#313131"/>
<path d="M41.8691 38.3471V20.4754C41.8691 18.1439 39.5487 15.615 36.471 15.615H23.5277C20.5866 15.615 18.1309 18.1961 18.1309 20.4754V38.3471C18.1309 38.7839 18.6598 38.9576 19.0966 38.9576H22.0872V59.3938C22.0872 59.8306 22.4568 60.3221 22.8935 60.3221H37.1064C37.5432 60.3221 37.9126 59.8311 37.9126 59.3938V38.9576H40.9021C41.339 38.9576 41.8691 38.7843 41.8691 38.3471ZM40.2866 37.3751H37.1064C36.6696 37.3751 36.3301 37.9104 36.3301 38.3472V58.7396H23.6697V38.3471C23.6697 37.9104 23.3306 37.375 22.8934 37.375H19.7133V20.4754C19.7133 19.1279 21.4161 17.1976 23.5276 17.1976H36.4713C38.6931 17.1976 40.2869 19.1109 40.2869 20.4754V37.3751H40.2866Z" fill="#313131"/>
<path d="M30.0014 12.6082C33.3876 12.6082 36.1421 9.85296 36.1421 6.46632C36.1421 3.07845 33.3873 0.322021 30.0014 0.322021C26.6116 0.322021 23.854 3.07845 23.854 6.46591C23.854 9.85296 26.6116 12.6082 30.0014 12.6082ZM30.0014 1.90461C32.5148 1.90461 34.5595 3.95083 34.5595 6.46591C34.5595 8.97977 32.5148 11.0253 30.0014 11.0253C27.4844 11.0253 25.4365 8.97985 25.4365 6.46591C25.4365 3.95083 27.4844 1.90461 30.0014 1.90461Z" fill="#313131"/>
<path d="M50.3928 17.5933H44.2485C43.9986 17.5933 43.7631 17.7844 43.6139 17.985C43.4648 18.1856 43.4644 18.4811 43.5361 18.7209C43.7121 19.3104 43.847 19.9248 43.847 20.4755V38.3473C43.847 39.9215 42.4757 41.3316 40.9019 41.3316H40.7532C40.3164 41.3316 39.8906 41.556 39.8906 41.9931V53.414C39.8906 53.8507 40.316 54.3876 40.7532 54.3876H50.908C51.3447 54.3876 51.7597 53.8512 51.7597 53.414V36.9795H53.9825C54.4192 36.9795 54.9248 36.7983 54.9248 36.3615V21.8836C54.9249 19.9232 52.9744 17.5933 50.3928 17.5933ZM53.3423 35.3969H50.908C50.4712 35.3969 50.1771 35.9243 50.1771 36.3615V52.8049H41.4732V42.7379C43.847 42.4258 45.4296 40.5758 45.4296 38.3472V20.4755C45.4296 20.0972 45.3065 19.5714 45.2424 19.1758H50.3928C52.1012 19.1758 53.3422 20.8387 53.3422 21.8835V35.3969H53.3423Z" fill="#313131"/>
</g>
<defs>
<clipPath id="clip0_504_2058">
<rect width="60" height="60" fill="white" transform="translate(0 0.322021)"/>
</clipPath>
</defs>
</svg>
