<svg width="45" height="46" viewBox="0 0 45 46" fill="none" xmlns="http://www.w3.org/2000/svg">
<path d="M22.5 11.3687C18.256 11.3687 14.0136 10.8799 9.89532 9.91474C9.4779 9.81698 9.21876 9.40112 9.31652 8.98215C9.41428 8.56629 9.82083 8.30715 10.2507 8.40336C19.2398 10.5106 28.7938 10.2453 37.682 7.6306C38.101 7.51267 38.5262 7.74387 38.6457 8.15508C38.7667 8.56784 38.5324 8.99767 38.1212 9.1187C33.0455 10.6115 27.7898 11.3687 22.5 11.3687Z" fill="#313131"/>
<path d="M37.9016 38.0584C37.8286 38.0584 37.7557 38.0476 37.6812 38.0258C27.8138 35.1226 17.1876 35.1226 7.32019 38.0258C6.90278 38.1422 6.47605 37.9126 6.35657 37.5014C6.23554 37.0886 6.46985 36.6588 6.88105 36.5377C17.0371 33.5491 27.9659 33.5491 38.1219 36.5377C38.5331 36.6588 38.7674 37.0886 38.6464 37.5014C38.5471 37.8412 38.2367 38.0584 37.9016 38.0584Z" fill="#313131"/>
<path d="M21.5514 44.695C21.3993 44.695 21.2488 44.6516 21.1138 44.56C13.8719 39.6178 9.54883 31.4914 9.54883 22.8219C9.54883 15.7973 12.3124 9.18538 17.3338 4.20435C17.6395 3.89866 18.1314 3.90487 18.4309 4.20745C18.7335 4.51159 18.7304 5.00349 18.4278 5.30452C13.7028 9.99228 11.1006 16.2131 11.1006 22.8219C11.1006 30.9778 15.1707 38.6262 21.9906 43.2783C22.3443 43.5188 22.4343 44.003 22.1938 44.3568C22.0418 44.5771 21.7981 44.695 21.5514 44.695Z" fill="#313131"/>
<path d="M23.5148 44.6951C23.2681 44.6951 23.0244 44.5772 22.8739 44.3568C22.6334 44.0015 22.7234 43.5189 23.0772 43.2784C29.897 38.6263 33.9672 30.9778 33.9672 22.822C33.9672 14.6661 29.897 7.01767 23.0772 2.3656C22.7234 2.12508 22.6334 1.64094 22.8739 1.28715C23.116 0.933357 23.6001 0.84646 23.9524 1.08387C31.1943 6.02612 35.5174 14.1525 35.5174 22.822C35.5174 31.4915 31.1943 39.6178 23.9524 44.5601C23.8189 44.6501 23.6669 44.6951 23.5148 44.6951Z" fill="#313131"/>
<path d="M22.5 44.464C22.0717 44.464 21.7241 44.1164 21.7241 43.6881V1.95604C21.7241 1.52776 22.0717 1.18018 22.5 1.18018C22.9283 1.18018 23.2758 1.52776 23.2758 1.95604V43.6881C23.2758 44.1179 22.9283 44.464 22.5 44.464Z" fill="#313131"/>
<path d="M44.1422 23.598H3.9619C3.53362 23.598 3.18604 23.2504 3.18604 22.8221C3.18604 22.3939 3.53362 22.0463 3.9619 22.0463H44.1438C44.5721 22.0463 44.9197 22.3939 44.9197 22.8221C44.9197 23.2504 44.5721 23.598 44.1422 23.598Z" fill="#313131"/>
<path d="M22.5 45.322C10.094 45.322 0 35.2281 0 22.822C0 17.3584 1.9831 12.0856 5.58621 7.97978C5.86862 7.65702 6.35741 7.62599 6.68172 7.9084C7.00293 8.19081 7.03396 8.68116 6.7531 9.00392C3.39983 12.8258 1.55172 17.7339 1.55172 22.822C1.55172 34.3731 10.949 43.7703 22.5 43.7703C34.051 43.7703 43.4483 34.3731 43.4483 22.822C43.4483 11.271 34.051 1.87375 22.5 1.87375C17.7238 1.87375 13.2269 3.43788 9.4981 6.39702C9.16293 6.66392 8.67569 6.60961 8.40879 6.27133C8.1419 5.93616 8.19776 5.44892 8.53448 5.18202C12.5395 2.00254 17.3684 0.322021 22.5 0.322021C34.906 0.322021 45 10.416 45 22.822C45 35.2281 34.906 45.322 22.5 45.322Z" fill="#313131"/>
</svg>
