<svg width="60" height="61" viewBox="0 0 60 61" fill="none" xmlns="http://www.w3.org/2000/svg">
<path d="M48.9 13.447C48.9 13.447 41.25 12.097 39.075 11.347C36.0011 10.4958 33.1267 9.04266 30.6187 7.07197C30.452 6.911 30.2316 6.81749 30 6.80947C29.7493 6.80509 29.5069 6.89936 29.325 7.07197C26.8413 9.05869 23.9757 10.5138 20.9062 11.347C18.75 12.097 11.25 13.447 11.1 13.447C10.8814 13.4824 10.6823 13.5941 10.5382 13.7623C10.394 13.9305 10.3141 14.1442 10.3125 14.3657C10.3125 29.5532 10.5 36.5657 15.15 43.7095C19.125 49.822 29.2125 53.5345 29.6438 53.7032C29.7491 53.7226 29.8571 53.7226 29.9625 53.7032H30.2812C30.7125 53.5345 40.875 49.822 44.85 43.7095C49.5 36.5657 49.6875 29.5532 49.6875 14.3657C49.6859 14.1442 49.606 13.9305 49.4618 13.7623C49.3177 13.5941 49.1186 13.4824 48.9 13.447ZM43.275 42.697C40.0125 47.7032 31.6875 51.1345 29.9625 51.8095C28.2375 51.1345 19.9875 47.7032 16.725 42.697C12.6 36.3595 12.2062 30.697 12.1875 15.1532C15.3435 14.695 18.473 14.0691 21.5625 13.2782C24.5857 12.2968 27.4337 10.8411 30 8.96572C32.5949 10.7909 35.4614 12.1957 38.4938 13.1282C41.5833 13.9189 44.7127 14.5448 47.8688 15.0032C47.7938 30.622 47.4 36.2845 43.275 42.622V42.697Z" fill="#313131"/>
<path d="M20.625 29.4886L28.4375 37.3011L44.0625 21.6761" stroke="#565656" stroke-linecap="round" stroke-linejoin="round"/>
</svg>
