<svg width="75" height="57" viewBox="0 0 75 57" fill="none" xmlns="http://www.w3.org/2000/svg">
<path d="M65.4557 21.5439C65.5701 20.7292 65.625 19.9005 65.625 19.072C65.625 8.73564 57.2159 0.322021 46.875 0.322021C40.8782 0.322021 35.3714 3.15562 31.8832 7.80195C30.6519 7.5043 29.3977 7.35327 28.125 7.35327C19.0796 7.35327 11.7188 14.7141 11.7188 23.7595C11.7188 23.9885 11.7233 24.2127 11.7325 24.437C4.95308 26.4512 0 32.7408 0 40.1658C0 49.2112 7.36084 56.572 16.4062 56.572H56.25C66.5909 56.572 75 48.1629 75 37.822C75 30.9876 71.2418 24.8125 65.4557 21.5439ZM56.25 51.8845H16.4062C9.9334 51.8845 4.6875 46.6386 4.6875 40.1658C4.6875 33.6929 9.93355 28.447 16.4062 28.447C16.7634 28.447 17.1021 28.5203 17.45 28.5523C16.7908 27.0875 16.4062 25.4716 16.4062 23.7595C16.4062 17.2867 21.6523 12.0408 28.125 12.0408C30.2399 12.0408 32.1992 12.645 33.9111 13.6247C36.0352 8.56177 41.0385 5.00952 46.875 5.00952C54.6432 5.00952 60.9375 11.3038 60.9375 19.072C60.9375 20.9214 60.5575 22.6792 59.9076 24.2998C65.8904 25.9202 70.3125 31.331 70.3125 37.822C70.3125 45.5902 64.0182 51.8845 56.25 51.8845Z" fill="black"/>
<path d="M23.4375 33.1345H32.8125V47.197H42.1875V33.1345H51.5625L37.5 19.072L23.4375 33.1345Z" fill="black"/>
</svg>
