<svg width="538" height="61" viewBox="0 0 538 61" fill="none" xmlns="http://www.w3.org/2000/svg">
<path d="M414.039 39V24H414.059L421.779 34.94L420.859 34.74L428.539 24H428.579V39H426.459V28.82L426.599 29.92L421.239 37.5H421.199L415.739 29.92L416.099 28.92V39H414.039Z" fill="white"/>
<path d="M431.472 34.72C431.472 33.88 431.672 33.1267 432.072 32.46C432.472 31.78 433.026 31.2467 433.732 30.86C434.439 30.4733 435.246 30.28 436.152 30.28C437.072 30.28 437.879 30.4733 438.572 30.86C439.266 31.2467 439.799 31.78 440.172 32.46C440.559 33.1267 440.752 33.88 440.752 34.72C440.752 35.56 440.559 36.32 440.172 37C439.799 37.68 439.266 38.22 438.572 38.62C437.879 39.0067 437.066 39.2 436.132 39.2C435.239 39.2 434.439 39.02 433.732 38.66C433.039 38.3 432.486 37.7867 432.072 37.12C431.672 36.44 431.472 35.64 431.472 34.72ZM433.552 34.74C433.552 35.26 433.666 35.7333 433.892 36.16C434.119 36.5733 434.426 36.9067 434.812 37.16C435.199 37.4 435.632 37.52 436.112 37.52C436.606 37.52 437.046 37.4 437.432 37.16C437.819 36.9067 438.119 36.5733 438.332 36.16C438.559 35.7333 438.672 35.26 438.672 34.74C438.672 34.22 438.559 33.7533 438.332 33.34C438.119 32.9267 437.819 32.5933 437.432 32.34C437.046 32.0867 436.606 31.96 436.112 31.96C435.619 31.96 435.179 32.0867 434.792 32.34C434.406 32.5933 434.099 32.9333 433.872 33.36C433.659 33.7733 433.552 34.2333 433.552 34.74Z" fill="white"/>
<path d="M443.988 26.94H446.048V30.64H448.288V32.26H446.048V39H443.988V32.26H442.508V30.64H443.988V26.94Z" fill="white"/>
<path d="M449.793 34.72C449.793 33.88 449.993 33.1267 450.393 32.46C450.793 31.78 451.346 31.2467 452.053 30.86C452.759 30.4733 453.566 30.28 454.473 30.28C455.393 30.28 456.199 30.4733 456.893 30.86C457.586 31.2467 458.119 31.78 458.493 32.46C458.879 33.1267 459.073 33.88 459.073 34.72C459.073 35.56 458.879 36.32 458.493 37C458.119 37.68 457.586 38.22 456.893 38.62C456.199 39.0067 455.386 39.2 454.453 39.2C453.559 39.2 452.759 39.02 452.053 38.66C451.359 38.3 450.806 37.7867 450.393 37.12C449.993 36.44 449.793 35.64 449.793 34.72ZM451.873 34.74C451.873 35.26 451.986 35.7333 452.213 36.16C452.439 36.5733 452.746 36.9067 453.133 37.16C453.519 37.4 453.953 37.52 454.433 37.52C454.926 37.52 455.366 37.4 455.753 37.16C456.139 36.9067 456.439 36.5733 456.653 36.16C456.879 35.7333 456.993 35.26 456.993 34.74C456.993 34.22 456.879 33.7533 456.653 33.34C456.439 32.9267 456.139 32.5933 455.753 32.34C455.366 32.0867 454.926 31.96 454.433 31.96C453.939 31.96 453.499 32.0867 453.113 32.34C452.726 32.5933 452.419 32.9333 452.193 33.36C451.979 33.7733 451.873 34.2333 451.873 34.74Z" fill="white"/>
<path d="M463.349 30.62L463.549 33.02L463.449 32.7C463.675 32.1933 463.995 31.76 464.409 31.4C464.822 31.04 465.249 30.7667 465.689 30.58C466.142 30.38 466.522 30.28 466.829 30.28L466.729 32.32C466.089 32.28 465.529 32.4 465.049 32.68C464.582 32.96 464.215 33.3333 463.949 33.8C463.682 34.2667 463.549 34.7667 463.549 35.3V39H461.509V30.62H463.349Z" fill="white"/>
<path d="M471.605 39.18C470.992 39.18 470.398 39.0733 469.825 38.86C469.252 38.6333 468.778 38.3067 468.405 37.88L469.285 36.72C469.645 37.0533 470.005 37.3067 470.365 37.48C470.738 37.64 471.092 37.72 471.425 37.72C471.692 37.72 471.932 37.6933 472.145 37.64C472.358 37.5733 472.532 37.4667 472.665 37.32C472.798 37.1733 472.865 36.98 472.865 36.74C472.865 36.46 472.772 36.24 472.585 36.08C472.398 35.92 472.158 35.7867 471.865 35.68C471.572 35.5733 471.258 35.4733 470.925 35.38C470.218 35.1533 469.685 34.8333 469.325 34.42C468.965 33.9933 468.785 33.4933 468.785 32.92C468.785 32.48 468.892 32.0667 469.105 31.68C469.332 31.28 469.672 30.9533 470.125 30.7C470.578 30.4467 471.138 30.32 471.805 30.32C472.418 30.32 472.958 30.3933 473.425 30.54C473.892 30.6733 474.325 30.9067 474.725 31.24L473.925 32.48C473.685 32.24 473.398 32.06 473.065 31.94C472.745 31.8067 472.452 31.7333 472.185 31.72C471.945 31.72 471.725 31.76 471.525 31.84C471.325 31.9067 471.165 32.0133 471.045 32.16C470.925 32.2933 470.865 32.4533 470.865 32.64C470.852 32.9067 470.938 33.1267 471.125 33.3C471.325 33.46 471.578 33.5933 471.885 33.7C472.192 33.7933 472.492 33.8933 472.785 34C473.198 34.12 473.565 34.2867 473.885 34.5C474.205 34.7 474.458 34.9467 474.645 35.24C474.832 35.5333 474.925 35.9067 474.925 36.36C474.925 36.8533 474.805 37.32 474.565 37.76C474.325 38.1867 473.958 38.5333 473.465 38.8C472.972 39.0533 472.352 39.18 471.605 39.18Z" fill="white"/>
<path d="M495.753 37.72C495.553 37.8933 495.273 38.0667 494.913 38.24C494.553 38.4133 494.146 38.5667 493.693 38.7C493.253 38.8333 492.8 38.94 492.333 39.02C491.866 39.1133 491.426 39.16 491.013 39.16C489.84 39.16 488.786 38.98 487.853 38.62C486.92 38.26 486.12 37.76 485.453 37.12C484.786 36.48 484.273 35.7333 483.913 34.88C483.566 34.0133 483.393 33.0733 483.393 32.06C483.393 30.82 483.593 29.72 483.993 28.76C484.393 27.8 484.933 26.9933 485.613 26.34C486.306 25.6733 487.1 25.1733 487.993 24.84C488.9 24.4933 489.846 24.32 490.833 24.32C491.7 24.32 492.5 24.42 493.233 24.62C493.98 24.82 494.62 25.08 495.153 25.4L494.453 27.36C494.186 27.2133 493.853 27.0733 493.453 26.94C493.066 26.7933 492.666 26.68 492.253 26.6C491.84 26.52 491.46 26.48 491.113 26.48C490.26 26.48 489.493 26.6067 488.813 26.86C488.146 27.1 487.573 27.4533 487.093 27.92C486.613 28.3867 486.24 28.9533 485.973 29.62C485.72 30.2867 485.593 31.04 485.593 31.88C485.593 32.64 485.726 33.34 485.993 33.98C486.26 34.6067 486.633 35.1533 487.113 35.62C487.593 36.0733 488.166 36.4267 488.833 36.68C489.5 36.92 490.24 37.04 491.053 37.04C491.52 37.04 491.98 36.9933 492.433 36.9C492.886 36.8067 493.273 36.6733 493.593 36.5V33.86H490.793V31.8H495.753V37.72Z" fill="white"/>
<path d="M500.751 30.62L500.951 33.02L500.851 32.7C501.078 32.1933 501.398 31.76 501.811 31.4C502.224 31.04 502.651 30.7667 503.091 30.58C503.544 30.38 503.924 30.28 504.231 30.28L504.131 32.32C503.491 32.28 502.931 32.4 502.451 32.68C501.984 32.96 501.618 33.3333 501.351 33.8C501.084 34.2667 500.951 34.7667 500.951 35.3V39H498.911V30.62H500.751Z" fill="white"/>
<path d="M505.496 34.72C505.496 33.88 505.696 33.1267 506.096 32.46C506.496 31.78 507.049 31.2467 507.756 30.86C508.462 30.4733 509.269 30.28 510.176 30.28C511.096 30.28 511.902 30.4733 512.596 30.86C513.289 31.2467 513.822 31.78 514.196 32.46C514.582 33.1267 514.776 33.88 514.776 34.72C514.776 35.56 514.582 36.32 514.196 37C513.822 37.68 513.289 38.22 512.596 38.62C511.902 39.0067 511.089 39.2 510.156 39.2C509.262 39.2 508.462 39.02 507.756 38.66C507.062 38.3 506.509 37.7867 506.096 37.12C505.696 36.44 505.496 35.64 505.496 34.72ZM507.576 34.74C507.576 35.26 507.689 35.7333 507.916 36.16C508.142 36.5733 508.449 36.9067 508.836 37.16C509.222 37.4 509.656 37.52 510.136 37.52C510.629 37.52 511.069 37.4 511.456 37.16C511.842 36.9067 512.142 36.5733 512.356 36.16C512.582 35.7333 512.696 35.26 512.696 34.74C512.696 34.22 512.582 33.7533 512.356 33.34C512.142 32.9267 511.842 32.5933 511.456 32.34C511.069 32.0867 510.629 31.96 510.136 31.96C509.642 31.96 509.202 32.0867 508.816 32.34C508.429 32.5933 508.122 32.9333 507.896 33.36C507.682 33.7733 507.576 34.2333 507.576 34.74Z" fill="white"/>
<path d="M519.892 39.34C519.119 39.34 518.485 39.1067 517.992 38.64C517.499 38.1733 517.239 37.5733 517.212 36.84V30.62H519.272V36.1C519.299 36.5267 519.419 36.88 519.632 37.16C519.859 37.4267 520.219 37.5667 520.712 37.58C521.165 37.58 521.565 37.4467 521.912 37.18C522.272 36.9 522.552 36.5267 522.752 36.06C522.965 35.58 523.072 35.0333 523.072 34.42V30.62H525.132V39H523.272L523.112 37.06L523.192 37.38C523.019 37.7533 522.772 38.0933 522.452 38.4C522.132 38.6933 521.752 38.92 521.312 39.08C520.872 39.2533 520.399 39.34 519.892 39.34Z" fill="white"/>
<path d="M533.306 39.2C532.693 39.2 532.106 39.0667 531.546 38.8C530.986 38.52 530.539 38.1467 530.206 37.68L530.326 37.06V43.02H528.286V30.48H530.066L530.346 32.52L530.126 31.94C530.539 31.46 531.046 31.06 531.646 30.74C532.259 30.42 532.939 30.26 533.686 30.26C534.473 30.26 535.179 30.4467 535.806 30.82C536.433 31.1933 536.926 31.72 537.286 32.4C537.646 33.08 537.826 33.88 537.826 34.8C537.826 35.7067 537.626 36.4933 537.226 37.16C536.839 37.8133 536.306 38.32 535.626 38.68C534.946 39.0267 534.173 39.2 533.306 39.2ZM532.906 37.58C533.413 37.58 533.879 37.46 534.306 37.22C534.746 36.98 535.093 36.6533 535.346 36.24C535.613 35.8133 535.746 35.34 535.746 34.82C535.746 34.2733 535.619 33.7933 535.366 33.38C535.126 32.9533 534.799 32.62 534.386 32.38C533.986 32.14 533.539 32.02 533.046 32.02C532.579 32.02 532.166 32.1067 531.806 32.28C531.446 32.44 531.139 32.6667 530.886 32.96C530.633 33.2533 530.453 33.6067 530.346 34.02V35.56C530.426 35.9467 530.586 36.2933 530.826 36.6C531.066 36.9067 531.366 37.1467 531.726 37.32C532.086 37.4933 532.479 37.58 532.906 37.58Z" fill="white"/>
<path d="M322.888 30.388V37H321.52V36.22C321.304 36.492 321.02 36.708 320.668 36.868C320.324 37.02 319.956 37.096 319.564 37.096C319.044 37.096 318.576 36.988 318.16 36.772C317.752 36.556 317.428 36.236 317.188 35.812C316.956 35.388 316.84 34.876 316.84 34.276V30.388H318.196V34.072C318.196 34.664 318.344 35.12 318.64 35.44C318.936 35.752 319.34 35.908 319.852 35.908C320.364 35.908 320.768 35.752 321.064 35.44C321.368 35.12 321.52 34.664 321.52 34.072V30.388H322.888Z" fill="white"/>
<path d="M332.697 30.28C333.217 30.28 333.681 30.388 334.089 30.604C334.505 30.82 334.829 31.14 335.061 31.564C335.301 31.988 335.421 32.5 335.421 33.1V37H334.065V33.304C334.065 32.712 333.917 32.26 333.621 31.948C333.325 31.628 332.921 31.468 332.409 31.468C331.897 31.468 331.489 31.628 331.185 31.948C330.889 32.26 330.741 32.712 330.741 33.304V37H329.385V33.304C329.385 32.712 329.237 32.26 328.941 31.948C328.645 31.628 328.241 31.468 327.729 31.468C327.217 31.468 326.809 31.628 326.505 31.948C326.209 32.26 326.061 32.712 326.061 33.304V37H324.693V30.388H326.061V31.144C326.285 30.872 326.569 30.66 326.913 30.508C327.257 30.356 327.625 30.28 328.017 30.28C328.545 30.28 329.017 30.392 329.433 30.616C329.849 30.84 330.169 31.164 330.393 31.588C330.593 31.188 330.905 30.872 331.329 30.64C331.753 30.4 332.209 30.28 332.697 30.28Z" fill="white"/>
<path d="M336.706 33.664C336.706 33 336.842 32.412 337.114 31.9C337.394 31.388 337.77 30.992 338.242 30.712C338.722 30.424 339.25 30.28 339.826 30.28C340.346 30.28 340.798 30.384 341.182 30.592C341.574 30.792 341.886 31.044 342.118 31.348V30.388H343.498V37H342.118V36.016C341.886 36.328 341.57 36.588 341.17 36.796C340.77 37.004 340.314 37.108 339.802 37.108C339.234 37.108 338.714 36.964 338.242 36.676C337.77 36.38 337.394 35.972 337.114 35.452C336.842 34.924 336.706 34.328 336.706 33.664ZM342.118 33.688C342.118 33.232 342.022 32.836 341.83 32.5C341.646 32.164 341.402 31.908 341.098 31.732C340.794 31.556 340.466 31.468 340.114 31.468C339.762 31.468 339.434 31.556 339.13 31.732C338.826 31.9 338.578 32.152 338.386 32.488C338.202 32.816 338.11 33.208 338.11 33.664C338.11 34.12 338.202 34.52 338.386 34.864C338.578 35.208 338.826 35.472 339.13 35.656C339.442 35.832 339.77 35.92 340.114 35.92C340.466 35.92 340.794 35.832 341.098 35.656C341.402 35.48 341.646 35.224 341.83 34.888C342.022 34.544 342.118 34.144 342.118 33.688Z" fill="white"/>
<path d="M354.472 33.532C354.472 33.78 354.456 34.004 354.424 34.204H349.372C349.412 34.732 349.608 35.156 349.96 35.476C350.312 35.796 350.744 35.956 351.256 35.956C351.992 35.956 352.512 35.648 352.816 35.032H354.292C354.092 35.64 353.728 36.14 353.2 36.532C352.68 36.916 352.032 37.108 351.256 37.108C350.624 37.108 350.056 36.968 349.552 36.688C349.056 36.4 348.664 36 348.376 35.488C348.096 34.968 347.956 34.368 347.956 33.688C347.956 33.008 348.092 32.412 348.364 31.9C348.644 31.38 349.032 30.98 349.528 30.7C350.032 30.42 350.608 30.28 351.256 30.28C351.88 30.28 352.436 30.416 352.924 30.688C353.412 30.96 353.792 31.344 354.064 31.84C354.336 32.328 354.472 32.892 354.472 33.532ZM353.044 33.1C353.036 32.596 352.856 32.192 352.504 31.888C352.152 31.584 351.716 31.432 351.196 31.432C350.724 31.432 350.32 31.584 349.984 31.888C349.648 32.184 349.448 32.588 349.384 33.1H353.044Z" fill="white"/>
<path d="M363.822 30.28C364.342 30.28 364.806 30.388 365.214 30.604C365.63 30.82 365.954 31.14 366.186 31.564C366.426 31.988 366.546 32.5 366.546 33.1V37H365.19V33.304C365.19 32.712 365.042 32.26 364.746 31.948C364.45 31.628 364.046 31.468 363.534 31.468C363.022 31.468 362.614 31.628 362.31 31.948C362.014 32.26 361.866 32.712 361.866 33.304V37H360.51V33.304C360.51 32.712 360.362 32.26 360.066 31.948C359.77 31.628 359.366 31.468 358.854 31.468C358.342 31.468 357.934 31.628 357.63 31.948C357.334 32.26 357.186 32.712 357.186 33.304V37H355.818V30.388H357.186V31.144C357.41 30.872 357.694 30.66 358.038 30.508C358.382 30.356 358.75 30.28 359.142 30.28C359.67 30.28 360.142 30.392 360.558 30.616C360.974 30.84 361.294 31.164 361.518 31.588C361.718 31.188 362.03 30.872 362.454 30.64C362.878 30.4 363.334 30.28 363.822 30.28Z" fill="white"/>
<path d="M369.655 31.36C369.887 31.056 370.203 30.8 370.603 30.592C371.003 30.384 371.455 30.28 371.959 30.28C372.535 30.28 373.059 30.424 373.531 30.712C374.011 30.992 374.387 31.388 374.659 31.9C374.931 32.412 375.067 33 375.067 33.664C375.067 34.328 374.931 34.924 374.659 35.452C374.387 35.972 374.011 36.38 373.531 36.676C373.059 36.964 372.535 37.108 371.959 37.108C371.455 37.108 371.007 37.008 370.615 36.808C370.223 36.6 369.903 36.344 369.655 36.04V40.144H368.287V30.388H369.655V31.36ZM373.675 33.664C373.675 33.208 373.579 32.816 373.387 32.488C373.203 32.152 372.955 31.9 372.643 31.732C372.339 31.556 372.011 31.468 371.659 31.468C371.315 31.468 370.987 31.556 370.675 31.732C370.371 31.908 370.123 32.164 369.931 32.5C369.747 32.836 369.655 33.232 369.655 33.688C369.655 34.144 369.747 34.544 369.931 34.888C370.123 35.224 370.371 35.48 370.675 35.656C370.987 35.832 371.315 35.92 371.659 35.92C372.011 35.92 372.339 35.832 372.643 35.656C372.955 35.472 373.203 35.208 373.387 34.864C373.579 34.52 373.675 34.12 373.675 33.664Z" fill="white"/>
<path d="M377.787 31.348C377.987 31.012 378.251 30.752 378.579 30.568C378.915 30.376 379.311 30.28 379.767 30.28V31.696H379.419C378.883 31.696 378.475 31.832 378.195 32.104C377.923 32.376 377.787 32.848 377.787 33.52V37H376.419V30.388H377.787V31.348Z" fill="white"/>
<path d="M387.085 33.532C387.085 33.78 387.069 34.004 387.037 34.204H381.985C382.025 34.732 382.221 35.156 382.573 35.476C382.925 35.796 383.357 35.956 383.869 35.956C384.605 35.956 385.125 35.648 385.429 35.032H386.905C386.705 35.64 386.341 36.14 385.813 36.532C385.293 36.916 384.645 37.108 383.869 37.108C383.237 37.108 382.669 36.968 382.165 36.688C381.669 36.4 381.277 36 380.989 35.488C380.709 34.968 380.569 34.368 380.569 33.688C380.569 33.008 380.705 32.412 380.977 31.9C381.257 31.38 381.645 30.98 382.141 30.7C382.645 30.42 383.221 30.28 383.869 30.28C384.493 30.28 385.049 30.416 385.537 30.688C386.025 30.96 386.405 31.344 386.677 31.84C386.949 32.328 387.085 32.892 387.085 33.532ZM385.657 33.1C385.649 32.596 385.469 32.192 385.117 31.888C384.765 31.584 384.329 31.432 383.809 31.432C383.337 31.432 382.933 31.584 382.597 31.888C382.261 32.184 382.061 32.588 381.997 33.1H385.657Z" fill="white"/>
<path d="M390.831 37.108C390.311 37.108 389.843 37.016 389.427 36.832C389.019 36.64 388.695 36.384 388.455 36.064C388.215 35.736 388.087 35.372 388.071 34.972H389.487C389.511 35.252 389.643 35.488 389.883 35.68C390.131 35.864 390.439 35.956 390.807 35.956C391.191 35.956 391.487 35.884 391.695 35.74C391.911 35.588 392.019 35.396 392.019 35.164C392.019 34.916 391.899 34.732 391.659 34.612C391.427 34.492 391.055 34.36 390.543 34.216C390.047 34.08 389.643 33.948 389.331 33.82C389.019 33.692 388.747 33.496 388.515 33.232C388.291 32.968 388.179 32.62 388.179 32.188C388.179 31.836 388.283 31.516 388.491 31.228C388.699 30.932 388.995 30.7 389.379 30.532C389.771 30.364 390.219 30.28 390.723 30.28C391.475 30.28 392.079 30.472 392.535 30.856C392.999 31.232 393.247 31.748 393.279 32.404H391.911C391.887 32.108 391.767 31.872 391.551 31.696C391.335 31.52 391.043 31.432 390.675 31.432C390.315 31.432 390.039 31.5 389.847 31.636C389.655 31.772 389.559 31.952 389.559 32.176C389.559 32.352 389.623 32.5 389.751 32.62C389.879 32.74 390.035 32.836 390.219 32.908C390.403 32.972 390.675 33.056 391.035 33.16C391.515 33.288 391.907 33.42 392.211 33.556C392.523 33.684 392.791 33.876 393.015 34.132C393.239 34.388 393.355 34.728 393.363 35.152C393.363 35.528 393.259 35.864 393.051 36.16C392.843 36.456 392.547 36.688 392.163 36.856C391.787 37.024 391.343 37.108 390.831 37.108Z" fill="white"/>
<path d="M394.385 33.664C394.385 33 394.521 32.412 394.793 31.9C395.073 31.388 395.449 30.992 395.921 30.712C396.401 30.424 396.929 30.28 397.505 30.28C398.025 30.28 398.477 30.384 398.861 30.592C399.253 30.792 399.565 31.044 399.797 31.348V30.388H401.177V37H399.797V36.016C399.565 36.328 399.249 36.588 398.849 36.796C398.449 37.004 397.993 37.108 397.481 37.108C396.913 37.108 396.393 36.964 395.921 36.676C395.449 36.38 395.073 35.972 394.793 35.452C394.521 34.924 394.385 34.328 394.385 33.664ZM399.797 33.688C399.797 33.232 399.701 32.836 399.509 32.5C399.325 32.164 399.081 31.908 398.777 31.732C398.473 31.556 398.145 31.468 397.793 31.468C397.441 31.468 397.113 31.556 396.809 31.732C396.505 31.9 396.257 32.152 396.065 32.488C395.881 32.816 395.789 33.208 395.789 33.664C395.789 34.12 395.881 34.52 396.065 34.864C396.257 35.208 396.505 35.472 396.809 35.656C397.121 35.832 397.449 35.92 397.793 35.92C398.145 35.92 398.473 35.832 398.777 35.656C399.081 35.48 399.325 35.224 399.509 34.888C399.701 34.544 399.797 34.144 399.797 33.688Z" fill="white"/>
<path d="M294 61V0H296V61H294Z" fill="white"/>
<path d="M42.11 30.53C42.11 28.49 42.58 26.66 43.52 25.04C44.48 23.42 45.77 22.16 47.39 21.26C49.03 20.34 50.82 19.88 52.76 19.88C54.98 19.88 56.95 20.43 58.67 21.53C60.41 22.61 61.67 24.15 62.45 26.15H58.34C57.8 25.05 57.05 24.23 56.09 23.69C55.13 23.15 54.02 22.88 52.76 22.88C51.38 22.88 50.15 23.19 49.07 23.81C47.99 24.43 47.14 25.32 46.52 26.48C45.92 27.64 45.62 28.99 45.62 30.53C45.62 32.07 45.92 33.42 46.52 34.58C47.14 35.74 47.99 36.64 49.07 37.28C50.15 37.9 51.38 38.21 52.76 38.21C54.02 38.21 55.13 37.94 56.09 37.4C57.05 36.86 57.8 36.04 58.34 34.94H62.45C61.67 36.94 60.41 38.48 58.67 39.56C56.95 40.64 54.98 41.18 52.76 41.18C50.8 41.18 49.01 40.73 47.39 39.83C45.77 38.91 44.48 37.64 43.52 36.02C42.58 34.4 42.11 32.57 42.11 30.53Z" fill="white"/>
<path d="M73.6231 41.27C72.0631 41.27 70.6531 40.92 69.3931 40.22C68.1331 39.5 67.1431 38.5 66.4231 37.22C65.7031 35.92 65.3431 34.42 65.3431 32.72C65.3431 31.04 65.7131 29.55 66.4531 28.25C67.1931 26.95 68.2031 25.95 69.4831 25.25C70.7631 24.55 72.1931 24.2 73.7731 24.2C75.3531 24.2 76.7831 24.55 78.0631 25.25C79.3431 25.95 80.3531 26.95 81.0931 28.25C81.8331 29.55 82.2031 31.04 82.2031 32.72C82.2031 34.4 81.8231 35.89 81.0631 37.19C80.3031 38.49 79.2631 39.5 77.9431 40.22C76.6431 40.92 75.2031 41.27 73.6231 41.27ZM73.6231 38.3C74.5031 38.3 75.3231 38.09 76.0831 37.67C76.8631 37.25 77.4931 36.62 77.9731 35.78C78.4531 34.94 78.6931 33.92 78.6931 32.72C78.6931 31.52 78.4631 30.51 78.0031 29.69C77.5431 28.85 76.9331 28.22 76.1731 27.8C75.4131 27.38 74.5931 27.17 73.7131 27.17C72.8331 27.17 72.0131 27.38 71.2531 27.8C70.5131 28.22 69.9231 28.85 69.4831 29.69C69.0431 30.51 68.8231 31.52 68.8231 32.72C68.8231 34.5 69.2731 35.88 70.1731 36.86C71.0931 37.82 72.2431 38.3 73.6231 38.3Z" fill="white"/>
<path d="M93.924 24.2C95.224 24.2 96.384 24.47 97.404 25.01C98.444 25.55 99.254 26.35 99.834 27.41C100.414 28.47 100.704 29.75 100.704 31.25V41H97.314V31.76C97.314 30.28 96.944 29.15 96.204 28.37C95.464 27.57 94.454 27.17 93.174 27.17C91.894 27.17 90.874 27.57 90.114 28.37C89.374 29.15 89.004 30.28 89.004 31.76V41H85.584V24.47H89.004V26.36C89.564 25.68 90.274 25.15 91.134 24.77C92.014 24.39 92.944 24.2 93.924 24.2Z" fill="white"/>
<path d="M113.406 24.2C114.706 24.2 115.866 24.47 116.886 25.01C117.926 25.55 118.736 26.35 119.316 27.41C119.896 28.47 120.186 29.75 120.186 31.25V41H116.796V31.76C116.796 30.28 116.426 29.15 115.686 28.37C114.946 27.57 113.936 27.17 112.656 27.17C111.376 27.17 110.356 27.57 109.596 28.37C108.856 29.15 108.486 30.28 108.486 31.76V41H105.066V24.47H108.486V26.36C109.046 25.68 109.756 25.15 110.616 24.77C111.496 24.39 112.426 24.2 113.406 24.2Z" fill="white"/>
<path d="M139.699 32.33C139.699 32.95 139.659 33.51 139.579 34.01H126.949C127.049 35.33 127.539 36.39 128.419 37.19C129.299 37.99 130.379 38.39 131.659 38.39C133.499 38.39 134.799 37.62 135.559 36.08H139.249C138.749 37.6 137.839 38.85 136.519 39.83C135.219 40.79 133.599 41.27 131.659 41.27C130.079 41.27 128.659 40.92 127.399 40.22C126.159 39.5 125.179 38.5 124.459 37.22C123.759 35.92 123.409 34.42 123.409 32.72C123.409 31.02 123.749 29.53 124.429 28.25C125.129 26.95 126.099 25.95 127.339 25.25C128.599 24.55 130.039 24.2 131.659 24.2C133.219 24.2 134.609 24.54 135.829 25.22C137.049 25.9 137.999 26.86 138.679 28.1C139.359 29.32 139.699 30.73 139.699 32.33ZM136.129 31.25C136.109 29.99 135.659 28.98 134.779 28.22C133.899 27.46 132.809 27.08 131.509 27.08C130.329 27.08 129.319 27.46 128.479 28.22C127.639 28.96 127.139 29.97 126.979 31.25H136.129Z" fill="white"/>
<path d="M141.924 32.72C141.924 31.02 142.264 29.53 142.944 28.25C143.644 26.95 144.604 25.95 145.824 25.25C147.044 24.55 148.444 24.2 150.024 24.2C152.024 24.2 153.674 24.68 154.974 25.64C156.294 26.58 157.184 27.93 157.644 29.69H153.954C153.654 28.87 153.174 28.23 152.514 27.77C151.854 27.31 151.024 27.08 150.024 27.08C148.624 27.08 147.504 27.58 146.664 28.58C145.844 29.56 145.434 30.94 145.434 32.72C145.434 34.5 145.844 35.89 146.664 36.89C147.504 37.89 148.624 38.39 150.024 38.39C152.004 38.39 153.314 37.52 153.954 35.78H157.644C157.164 37.46 156.264 38.8 154.944 39.8C153.624 40.78 151.984 41.27 150.024 41.27C148.444 41.27 147.044 40.92 145.824 40.22C144.604 39.5 143.644 38.5 142.944 37.22C142.264 35.92 141.924 34.42 141.924 32.72Z" fill="white"/>
<path d="M165.043 27.26V36.41C165.043 37.03 165.183 37.48 165.463 37.76C165.763 38.02 166.263 38.15 166.963 38.15H169.063V41H166.363C164.823 41 163.643 40.64 162.823 39.92C162.003 39.2 161.593 38.03 161.593 36.41V27.26H159.643V24.47H161.593V20.36H165.043V24.47H169.063V27.26H165.043Z" fill="white"/>
<path d="M194.175 20.15V41H190.755V26.72L184.395 41H182.025L175.635 26.72V41H172.215V20.15H175.905L183.225 36.5L190.515 20.15H194.175Z" fill="white"/>
<path d="M205.84 41.27C204.28 41.27 202.87 40.92 201.61 40.22C200.35 39.5 199.36 38.5 198.64 37.22C197.92 35.92 197.56 34.42 197.56 32.72C197.56 31.04 197.93 29.55 198.67 28.25C199.41 26.95 200.42 25.95 201.7 25.25C202.98 24.55 204.41 24.2 205.99 24.2C207.57 24.2 209 24.55 210.28 25.25C211.56 25.95 212.57 26.95 213.31 28.25C214.05 29.55 214.42 31.04 214.42 32.72C214.42 34.4 214.04 35.89 213.28 37.19C212.52 38.49 211.48 39.5 210.16 40.22C208.86 40.92 207.42 41.27 205.84 41.27ZM205.84 38.3C206.72 38.3 207.54 38.09 208.3 37.67C209.08 37.25 209.71 36.62 210.19 35.78C210.67 34.94 210.91 33.92 210.91 32.72C210.91 31.52 210.68 30.51 210.22 29.69C209.76 28.85 209.15 28.22 208.39 27.8C207.63 27.38 206.81 27.17 205.93 27.17C205.05 27.17 204.23 27.38 203.47 27.8C202.73 28.22 202.14 28.85 201.7 29.69C201.26 30.51 201.04 31.52 201.04 32.72C201.04 34.5 201.49 35.88 202.39 36.86C203.31 37.82 204.46 38.3 205.84 38.3Z" fill="white"/>
<path d="M221.791 27.26V36.41C221.791 37.03 221.931 37.48 222.211 37.76C222.511 38.02 223.011 38.15 223.711 38.15H225.811V41H223.111C221.571 41 220.391 40.64 219.571 39.92C218.751 39.2 218.341 38.03 218.341 36.41V27.26H216.391V24.47H218.341V20.36H221.791V24.47H225.811V27.26H221.791Z" fill="white"/>
<path d="M236.133 41.27C234.573 41.27 233.163 40.92 231.903 40.22C230.643 39.5 229.653 38.5 228.933 37.22C228.213 35.92 227.853 34.42 227.853 32.72C227.853 31.04 228.223 29.55 228.963 28.25C229.703 26.95 230.713 25.95 231.993 25.25C233.273 24.55 234.703 24.2 236.283 24.2C237.863 24.2 239.293 24.55 240.573 25.25C241.853 25.95 242.863 26.95 243.603 28.25C244.343 29.55 244.713 31.04 244.713 32.72C244.713 34.4 244.333 35.89 243.573 37.19C242.813 38.49 241.773 39.5 240.453 40.22C239.153 40.92 237.713 41.27 236.133 41.27ZM236.133 38.3C237.013 38.3 237.833 38.09 238.593 37.67C239.373 37.25 240.003 36.62 240.483 35.78C240.963 34.94 241.203 33.92 241.203 32.72C241.203 31.52 240.973 30.51 240.513 29.69C240.053 28.85 239.443 28.22 238.683 27.8C237.923 27.38 237.103 27.17 236.223 27.17C235.343 27.17 234.523 27.38 233.763 27.8C233.023 28.22 232.433 28.85 231.993 29.69C231.553 30.51 231.333 31.52 231.333 32.72C231.333 34.5 231.783 35.88 232.683 36.86C233.603 37.82 234.753 38.3 236.133 38.3Z" fill="white"/>
<path d="M251.514 26.87C252.014 26.03 252.674 25.38 253.494 24.92C254.334 24.44 255.324 24.2 256.464 24.2V27.74H255.594C254.254 27.74 253.234 28.08 252.534 28.76C251.854 29.44 251.514 30.62 251.514 32.3V41H248.094V24.47H251.514V26.87Z" fill="white"/>
<path d="M265.607 41.27C264.307 41.27 263.137 41.04 262.097 40.58C261.077 40.1 260.267 39.46 259.667 38.66C259.067 37.84 258.747 36.93 258.707 35.93H262.247C262.307 36.63 262.637 37.22 263.237 37.7C263.857 38.16 264.627 38.39 265.547 38.39C266.507 38.39 267.247 38.21 267.767 37.85C268.307 37.47 268.577 36.99 268.577 36.41C268.577 35.79 268.277 35.33 267.677 35.03C267.097 34.73 266.167 34.4 264.887 34.04C263.647 33.7 262.637 33.37 261.857 33.05C261.077 32.73 260.397 32.24 259.817 31.58C259.257 30.92 258.977 30.05 258.977 28.97C258.977 28.09 259.237 27.29 259.757 26.57C260.277 25.83 261.017 25.25 261.977 24.83C262.957 24.41 264.077 24.2 265.337 24.2C267.217 24.2 268.727 24.68 269.867 25.64C271.027 26.58 271.647 27.87 271.727 29.51H268.307C268.247 28.77 267.947 28.18 267.407 27.74C266.867 27.3 266.137 27.08 265.217 27.08C264.317 27.08 263.627 27.25 263.147 27.59C262.667 27.93 262.427 28.38 262.427 28.94C262.427 29.38 262.587 29.75 262.907 30.05C263.227 30.35 263.617 30.59 264.077 30.77C264.537 30.93 265.217 31.14 266.117 31.4C267.317 31.72 268.297 32.05 269.057 32.39C269.837 32.71 270.507 33.19 271.067 33.83C271.627 34.47 271.917 35.32 271.937 36.38C271.937 37.32 271.677 38.16 271.157 38.9C270.637 39.64 269.897 40.22 268.937 40.64C267.997 41.06 266.887 41.27 265.607 41.27Z" fill="white"/>
<path d="M13.5941 15.0191C14.8847 15.0128 16.2075 14.962 17.4942 15.0574C20.8149 15.3038 25.2818 17.7652 27.4586 20.3215C27.8081 20.732 28.077 21.1552 28.0346 21.7109C27.7773 22.3574 27.0528 22.7578 26.506 23.149C23.673 20.1952 20.7469 17.9192 16.5197 17.6011C12.696 17.3134 9.52368 18.767 6.67329 21.2134C6.48633 21.3982 6.30524 21.5887 6.13004 21.7847C3.17056 25.0897 2.5745 28.5888 2.81637 32.9014C2.14559 33.7587 1.41551 34.3745 0.519536 34.9838C0.423251 34.6406 0.350426 34.294 0.287754 33.9434C-0.499471 29.5422 0.314783 25.1689 2.90033 21.4711C5.43539 17.8456 9.28776 15.7861 13.5941 15.0191Z" fill="white"/>
<path d="M6.1381 40.1115C7.35655 40.0914 8.88009 41.6468 9.98733 42.2083C10.5501 42.4974 11.1316 42.742 11.7317 42.9423C12.3319 43.1425 12.9438 43.296 13.5674 43.4029C17.7878 44.1028 21.0324 42.5379 24.3662 40.1458C25.105 40.6311 25.8282 40.9887 26.042 41.8997C25.9164 42.4478 25.4841 42.6758 25.0468 42.9731C23.3043 44.0171 21.6141 44.9802 19.6459 45.5479C15.1394 46.8479 10.7932 45.7325 6.8025 43.5167C5.93664 43.0359 5.33778 42.5414 5.05859 41.5635C5.1011 41.0113 5.76424 40.4939 6.1381 40.1115Z" fill="white"/>
<path d="M7.19754 29.7734L5.10156 31.8693V28.7254L7.19754 26.6294L15.2321 33.2667L23.2667 26.6294L28.5067 30.8214V33.9653L23.2667 29.7734L15.2321 36.76L7.19754 29.7734Z" fill="white"/>
</svg>
