<svg width="17" height="23" viewBox="0 0 17 23" fill="none" xmlns="http://www.w3.org/2000/svg">
<path d="M8.13043 0.217285C5.97411 0.217285 3.9061 1.07388 2.38135 2.59863C0.856597 4.12339 0 6.19139 0 8.34772C0 16.6555 7.3913 22.029 7.70174 22.2508C7.82692 22.3399 7.97677 22.3878 8.13043 22.3878C8.2841 22.3878 8.43395 22.3399 8.55913 22.2508C8.86957 22.029 16.2609 16.6555 16.2609 8.34772C16.2609 6.19139 15.4043 4.12339 13.8795 2.59863C12.3548 1.07388 10.2868 0.217285 8.13043 0.217285ZM8.13043 12.0434C7.3995 12.0434 6.68499 11.8266 6.07724 11.4205C5.46949 11.0145 4.99581 10.4373 4.7161 9.76198C4.43638 9.08669 4.3632 8.34362 4.50579 7.62673C4.64839 6.90985 5.00037 6.25135 5.51721 5.7345C6.03406 5.21765 6.69256 4.86568 7.40945 4.72308C8.12634 4.58048 8.86941 4.65367 9.5447 4.93338C10.22 5.2131 10.7972 5.68678 11.2033 6.29453C11.6093 6.90227 11.8261 7.61679 11.8261 8.34772C11.8261 9.32787 11.4367 10.2679 10.7437 10.9609C10.0506 11.654 9.11058 12.0434 8.13043 12.0434Z" fill="black"/>
</svg>
