<svg width="48" height="51" viewBox="0 0 48 51" fill="none" xmlns="http://www.w3.org/2000/svg">
<path d="M45.1136 18.0429C46.0819 16.6654 47.6737 13.4073 45.1136 9.31952C44.5976 8.47073 43.8905 7.75391 43.0486 7.22606C42.8634 6.25854 42.136 3.92924 39.2455 1.9156C36.4688 -0.0158037 32.4163 0.290173 31.6804 0.366365C31.0498 0.165656 30.3961 0.0461701 29.7352 0.010803C27.6569 -0.087158 26.0592 0.481258 24.9202 1.71C24.545 2.12966 24.2353 2.60342 24.0014 3.11532C23.7676 2.60313 23.4575 2.12931 23.0815 1.71C21.9437 0.481258 20.3145 -0.087158 18.2689 0.010803C17.6081 0.0467692 16.9545 0.166241 16.3237 0.366365C15.5914 0.290173 11.5341 -0.0158039 8.75014 1.91923C5.85724 3.93408 5.12977 6.27305 4.94579 7.23089C4.10696 7.75967 3.40254 8.47591 2.88807 9.32315C0.330455 13.4109 1.927 16.669 2.88807 18.0477C1.70791 19.0564 -0.486579 21.4195 0.0968438 24.6583C0.493862 26.8594 1.77207 28.5513 3.56833 29.329C4.20501 29.8454 7.65108 32.3053 15.2344 32.3803V38.472H12.5472C12.3468 37.4972 11.7914 36.6314 10.9886 36.0423C10.1858 35.4532 9.19273 35.1828 8.2018 35.2835C7.21088 35.3841 6.2926 35.8486 5.62487 36.5871C4.95713 37.3255 4.58745 38.2853 4.58745 39.2805C4.58745 40.2757 4.95713 41.2354 5.62487 41.9739C6.2926 42.7123 7.21088 43.1768 8.2018 43.2775C9.19273 43.3781 10.1858 43.1077 10.9886 42.5187C11.7914 41.9296 12.3468 41.0638 12.5472 40.089H16.0466C16.1535 40.0896 16.2594 40.0691 16.3583 40.0285C16.4572 39.988 16.5471 39.9282 16.6227 39.8528C16.6984 39.7773 16.7583 39.6876 16.799 39.5888C16.8397 39.4901 16.8604 39.3843 16.86 39.2775V32.3621H16.8939C16.9229 32.3621 16.9471 32.3464 16.975 32.3428C17.2287 32.3878 17.485 32.4169 17.7424 32.4299C20.4706 32.4299 22.1313 31.605 23.1529 30.3908V42.5827C22.1797 42.7941 21.3196 43.3588 20.7392 44.1675C20.1588 44.9762 19.8994 45.9713 20.0113 46.9601C20.1232 47.949 20.5984 48.8611 21.3449 49.5199C22.0914 50.1787 23.056 50.5372 24.0519 50.5261C25.0479 50.5149 26.0042 50.1348 26.7357 49.4595C27.4672 48.7842 27.9218 47.8616 28.0115 46.8705C28.1012 45.8794 27.8196 44.8904 27.2212 44.0949C26.6228 43.2994 25.7502 42.7541 24.7725 42.5646V30.2759C25.7844 31.5518 27.4584 32.4299 30.269 32.4299C30.5272 32.4169 30.7843 32.3878 31.0388 32.3428C31.0667 32.3428 31.0909 32.3609 31.1199 32.3621H31.1429V39.2775C31.1429 39.3836 31.1639 39.4888 31.2046 39.5869C31.2453 39.685 31.305 39.7741 31.3802 39.8491C31.4554 39.9242 31.5447 39.9837 31.6429 40.0242C31.7411 40.0647 31.8464 40.0855 31.9527 40.0853H35.4508C35.6513 41.0602 36.2067 41.926 37.0095 42.515C37.8123 43.1041 38.8053 43.3745 39.7962 43.2739C40.7872 43.1732 41.7055 42.7087 42.3732 41.9702C43.0409 41.2318 43.4106 40.272 43.4106 39.2768C43.4106 38.2817 43.0409 37.3219 42.3732 36.5835C41.7055 35.845 40.7872 35.3805 39.7962 35.2798C38.8053 35.1792 37.8123 35.4496 37.0095 36.0387C36.2067 36.6277 35.6513 37.4935 35.4508 38.4684H32.7661V32.3766C40.3446 32.3017 43.7906 29.8442 44.4309 29.3265C46.2284 28.5501 47.5054 26.8558 47.9024 24.6547C48.4883 21.4159 46.2938 19.0527 45.1136 18.0429ZM8.60852 41.6769C8.13321 41.6771 7.66851 41.5365 7.27321 41.2728C6.8779 41.0091 6.56976 40.6342 6.38775 40.1955C6.20575 39.7568 6.15807 39.274 6.25074 38.8082C6.34341 38.3424 6.57226 37.9145 6.90836 37.5787C7.24445 37.2429 7.67268 37.0143 8.13887 36.9217C8.60506 36.8291 9.08826 36.8767 9.52734 37.0586C9.96642 37.2404 10.3417 37.5483 10.6056 37.9433C10.8695 38.3382 11.0102 38.8025 11.01 39.2775C11.009 39.9135 10.7557 40.5233 10.3056 40.9731C9.85541 41.4228 9.24514 41.6759 8.60852 41.6769ZM39.3932 36.8768C39.8684 36.8766 40.3331 37.0172 40.7284 37.2808C41.1236 37.5444 41.4318 37.9193 41.6138 38.3579C41.7959 38.7966 41.8436 39.2793 41.751 39.7451C41.6585 40.2108 41.4297 40.6387 41.0938 40.9745C40.7578 41.3104 40.3297 41.5392 39.8636 41.6319C39.3974 41.7246 38.9143 41.6771 38.4752 41.4955C38.0361 41.3138 37.6608 41.0061 37.3967 40.6113C37.1326 40.2165 36.9917 39.7523 36.9917 39.2775C36.992 38.6411 37.2451 38.0308 37.6953 37.5807C38.1456 37.1306 38.7562 36.8774 39.3932 36.8768ZM41.1095 6.44962C39.2552 6.03601 37.287 6.38915 35.7728 6.93338C35.8079 5.62844 35.6166 3.69341 34.4413 2.18288C34.3784 2.10185 34.2949 2.0438 34.2283 1.9676C35.5319 2.07403 37.1091 2.39331 38.3244 3.23989C39.9318 4.36342 40.7149 5.56072 41.1095 6.44962ZM9.68096 3.24231C10.8914 2.39573 12.4649 2.08129 13.7746 1.97365C13.708 2.04863 13.6257 2.10548 13.564 2.1865C12.3875 3.69704 12.1962 5.63086 12.2325 6.9358C10.7195 6.38915 8.75014 6.03722 6.89336 6.45204C7.28675 5.56193 8.06989 4.36463 9.68096 3.24231ZM17.7375 30.8165C16.2947 30.8165 15.2876 30.2783 14.9027 29.3011C14.5299 28.3542 14.8071 27.1242 15.5479 26.4337C16.2027 25.829 17.0742 25.7552 18.0655 26.2305C18.2591 26.3235 18.4818 26.3359 18.6845 26.2649C18.8872 26.1939 19.0534 26.0454 19.1464 25.852C19.2395 25.6585 19.2519 25.4361 19.1809 25.2336C19.1098 25.031 18.9612 24.865 18.7676 24.772C18.257 24.5325 17.706 24.3905 17.1432 24.3535C17.3853 23.9245 17.5538 23.4581 17.6419 22.9736C17.6578 22.8686 17.6528 22.7615 17.6273 22.6585C17.6018 22.5554 17.5562 22.4584 17.4931 22.3729C17.4301 22.2874 17.3508 22.2152 17.2598 22.1604C17.1688 22.1055 17.0679 22.0691 16.9628 22.0532C16.8578 22.0374 16.7506 22.0423 16.6475 22.0678C16.5443 22.0933 16.4472 22.1389 16.3617 22.2019C16.2761 22.2649 16.2038 22.3441 16.1489 22.435C16.094 22.5259 16.0576 22.6267 16.0417 22.7317C15.9098 23.6013 14.9523 24.7538 14.5989 25.1251C14.5916 25.1336 14.5892 25.1445 14.5807 25.1541C14.5384 25.1904 14.4863 25.2073 14.444 25.246C13.2239 26.3793 12.7845 28.3324 13.3957 29.8901C13.5253 30.1875 13.6929 30.4667 13.8944 30.721C11.0318 30.5662 8.8966 30.0449 7.39568 29.4995C8.26988 29.2094 9.05138 28.6928 9.66038 28.0023C9.79136 27.8404 9.85477 27.6343 9.83741 27.4269C9.82004 27.2195 9.72324 27.0268 9.56718 26.889C9.41112 26.7512 9.20784 26.6788 8.9997 26.687C8.79156 26.6953 8.59464 26.7834 8.44996 26.9332C7.99566 27.45 7.40341 27.8269 6.74253 28.0196C6.08165 28.2124 5.37949 28.2131 4.71823 28.0216C3.16042 27.5886 2.03231 26.2208 1.69218 24.3644C1.24917 21.9093 3.06964 20.0178 3.9823 19.2414C4.45799 19.655 5.19272 20.2174 6.00975 20.5306C6.10292 20.5661 6.20174 20.5846 6.30146 20.585C6.49034 20.5847 6.67315 20.5184 6.81827 20.3976C6.9634 20.2768 7.0617 20.1092 7.09617 19.9236C7.13064 19.7381 7.09911 19.5463 7.00703 19.3815C6.91496 19.2168 6.76813 19.0893 6.59196 19.0213C5.58247 18.6355 4.63471 17.6414 4.62261 17.6269C4.6105 17.6123 4.61292 17.6269 4.60929 17.6172C4.6073 17.6133 4.60486 17.6096 4.60203 17.6063C4.48099 17.4854 1.56387 14.4873 4.25948 10.177C6.91272 5.93442 12.5533 8.81883 12.7942 8.9434C12.9297 9.01427 13.0826 9.04533 13.235 9.03299C13.3875 9.02065 13.5334 8.9654 13.6557 8.87365C13.7781 8.78191 13.8719 8.65741 13.9264 8.51457C13.9808 8.37174 13.9937 8.21642 13.9634 8.06659C13.9634 8.03635 13.3752 5.06124 14.841 3.17821C15.583 2.22642 16.7619 1.70517 18.3512 1.62656C19.8812 1.5419 21.0928 1.94584 21.8953 2.80451C22.9121 3.90022 23.1542 5.54741 23.1844 6.65643C23.1656 6.71536 23.1534 6.77621 23.1481 6.83784C23.1481 8.30363 22.739 9.31347 21.9655 9.75853C21.2732 10.16 20.3545 10.0597 19.8424 9.75853C19.0472 9.29896 18.5933 8.81036 18.5303 8.34717C18.4638 7.8501 18.8584 7.42923 18.8789 7.40867C19.0297 7.25797 19.1148 7.05395 19.1159 6.84089C19.117 6.62784 19.034 6.42295 18.8848 6.27071C18.7356 6.11847 18.5323 6.03117 18.3191 6.02776C18.1059 6.02435 17.9 6.1051 17.746 6.25249C17.6443 6.35166 16.7643 7.24782 16.9217 8.53462C17.0427 9.53721 17.7557 10.4201 19.0315 11.1578C19.6118 11.4757 20.264 11.6398 20.9258 11.6343C21.5741 11.6383 22.2121 11.4715 22.7753 11.1505C22.905 11.0751 23.0296 10.991 23.1481 10.899V18.5303C22.9701 18.3284 22.7797 18.1377 22.578 17.9594C20.8592 16.4779 18.3827 15.8503 15.1944 16.097C14.1864 16.16 13.208 16.4623 12.3403 16.9786C12.2967 16.9656 12.2522 16.9563 12.2071 16.9508C12.1865 16.9508 10.2026 16.9012 8.96318 14.8428C8.30713 13.7544 8.99949 12.1822 9.00554 12.1652C9.06475 11.9765 9.05269 11.7725 8.97164 11.5921C8.89058 11.4116 8.74616 11.267 8.56566 11.1857C8.38516 11.1044 8.18111 11.092 7.99207 11.1508C7.80303 11.2096 7.6421 11.3356 7.53972 11.5049C7.49736 11.6004 6.48302 13.8644 7.58209 15.687C8.30963 16.9353 9.47375 17.8706 10.8502 18.3126C9.50545 20.0057 9.15563 22.2758 9.23431 23.7416C9.24605 23.9477 9.33619 24.1415 9.48628 24.2834C9.63636 24.4252 9.83505 24.5044 10.0417 24.5047H10.0816C10.1878 24.499 10.2919 24.4724 10.3878 24.4264C10.4838 24.3804 10.5697 24.316 10.6406 24.2368C10.7116 24.1576 10.7662 24.0651 10.8013 23.9648C10.8365 23.8645 10.8514 23.7582 10.8454 23.6521C10.8321 23.4259 10.5912 18.0888 15.3239 17.72C22.5756 17.1576 23.1227 21.8646 23.1542 22.1524V23.3799C23.1542 27.8692 22.7717 30.8129 17.7375 30.8129V30.8165ZM26.4041 46.5072C26.4037 46.9819 26.2623 47.4458 25.998 47.8403C25.7337 48.2347 25.3583 48.5421 24.9192 48.7234C24.4802 48.9047 23.9971 48.9519 23.5312 48.859C23.0653 48.7661 22.6374 48.5373 22.3016 48.2015C21.9659 47.8656 21.7373 47.4379 21.6448 46.9723C21.5522 46.5066 21.6 46.0241 21.7819 45.5855C21.9638 45.147 22.2718 44.7722 22.6668 44.5086C23.0619 44.2449 23.5263 44.1041 24.0014 44.1041C24.6383 44.1048 25.2489 44.3578 25.6993 44.8076C26.1497 45.2574 26.4032 45.8673 26.4041 46.5036V46.5072ZM46.3095 24.3753C45.9754 26.2305 44.8461 27.5971 43.2895 28.0313C42.628 28.2221 41.9259 28.2211 41.2649 28.0284C40.604 27.8357 40.0115 27.4592 39.5566 26.9428C39.4119 26.7931 39.215 26.7049 39.0068 26.6967C38.7987 26.6885 38.5954 26.7608 38.4393 26.8987C38.2833 27.0365 38.1865 27.2292 38.1691 27.4366C38.1518 27.644 38.2152 27.8501 38.3461 28.0119C38.9557 28.6949 39.7342 29.2058 40.6036 29.4934C39.1015 30.0377 36.9663 30.5589 34.1085 30.7137C34.3098 30.4601 34.4771 30.1811 34.6059 29.8841C35.2184 28.3264 34.779 26.3768 33.5577 25.24C33.5166 25.2013 33.4645 25.1844 33.4222 25.1481C33.4137 25.1384 33.4113 25.1275 33.4028 25.1191C33.0457 24.7478 32.0919 23.5952 31.9612 22.7257C31.9266 22.5149 31.8111 22.326 31.6394 22.1989C31.4676 22.0718 31.2531 22.0165 31.0413 22.0448C30.8289 22.0767 30.6379 22.1916 30.5104 22.3642C30.3828 22.5368 30.3291 22.753 30.361 22.9651C30.4486 23.4496 30.6168 23.916 30.8585 24.345C30.2959 24.3815 29.7453 24.5235 29.2353 24.7635C29.0409 24.8559 28.8912 25.0216 28.8192 25.2243C28.7471 25.4269 28.7585 25.6499 28.851 25.8441C28.9435 26.0383 29.1093 26.1879 29.3122 26.2599C29.515 26.3319 29.7381 26.3205 29.9325 26.2281C30.9226 25.7528 31.7954 25.8217 32.449 26.4313C33.191 27.1182 33.4682 28.3518 33.0941 29.2987C32.7104 30.2759 31.7034 30.8141 30.2593 30.8141C25.2276 30.8141 24.8512 27.8704 24.8512 23.3812V22.1597C25.0207 21.0077 25.5994 19.9551 26.4816 19.1942C27.8615 18.0042 29.9398 17.5095 32.6717 17.72C37.3839 18.0828 37.1624 23.4271 37.1503 23.6545C37.1397 23.868 37.2143 24.077 37.3577 24.2357C37.5011 24.3944 37.7016 24.4898 37.9152 24.5011H37.96C38.1665 24.5008 38.3651 24.4215 38.515 24.2796C38.6648 24.1377 38.7547 23.9439 38.7662 23.7379C38.8473 22.2721 38.495 19.9997 37.149 18.309C38.5256 17.8672 39.6898 16.9319 40.4172 15.6834C41.5162 13.8608 40.5019 11.5968 40.4595 11.5013C40.3699 11.3068 40.2067 11.1558 40.0057 11.0813C39.8048 11.0068 39.5825 11.015 39.3876 11.104C39.1927 11.1929 39.041 11.3555 38.9658 11.556C38.8906 11.7565 38.898 11.9786 38.9865 12.1737C38.9937 12.1894 39.6837 13.7665 39.03 14.8489C37.8051 16.877 35.8624 16.9544 35.7849 16.9569C35.7393 16.9621 35.6943 16.9718 35.6505 16.9859C34.7832 16.4685 33.8046 16.1658 32.7964 16.103C29.6154 15.8551 27.1389 16.484 25.4201 17.9655C25.2173 18.1439 25.0261 18.3349 24.8475 18.5375V10.9014C24.968 10.9943 25.0941 11.0795 25.2252 11.1566C25.7884 11.4775 26.4264 11.6444 27.0747 11.6403C27.7369 11.6456 28.3894 11.4816 28.9702 11.1638C30.2448 10.4261 30.9529 9.54326 31.0788 8.54067C31.2361 7.25387 30.3525 6.36376 30.2545 6.25854C30.1004 6.10891 29.8931 6.02657 29.6783 6.02963C29.4634 6.03269 29.2586 6.1209 29.1088 6.27487C28.9591 6.42883 28.8766 6.63592 28.8797 6.85059C28.8828 7.06527 28.9711 7.26993 29.1252 7.41956C29.1252 7.41956 29.5319 7.84768 29.4701 8.34233C29.4132 8.80915 28.9593 9.30017 28.1592 9.76458C27.6448 10.0609 26.7273 10.16 26.035 9.76458C25.2615 9.31952 24.8524 8.3133 24.8524 6.84389C24.8474 6.77923 24.8344 6.71545 24.8136 6.65401C24.8475 5.56556 25.0836 3.91231 26.1088 2.81176C26.9077 1.95188 28.1181 1.54794 29.6517 1.6326C31.2349 1.71 32.4127 2.2373 33.1522 3.17821C34.6156 5.04914 34.0431 8.04361 34.037 8.07384C34.0076 8.22348 34.021 8.37838 34.0757 8.52075C34.1304 8.66311 34.2243 8.78715 34.3464 8.87861C34.4685 8.97007 34.614 9.02524 34.7662 9.03777C34.9183 9.0503 35.0708 9.01968 35.2063 8.94944C35.4484 8.8285 41.0853 5.93563 43.741 10.183C46.4354 14.4933 43.5231 17.4866 43.3997 17.6087C43.3997 17.6087 43.3997 17.6196 43.39 17.6232C43.3803 17.6269 43.3815 17.6232 43.3779 17.6329C43.1152 17.9123 42.2522 18.7044 41.4073 19.0298C41.2311 19.0978 41.0843 19.2252 40.9922 19.39C40.9002 19.5548 40.8686 19.7465 40.9031 19.9321C40.9376 20.1176 41.0359 20.2853 41.181 20.4061C41.3261 20.5269 41.5089 20.5932 41.6978 20.5935C41.7975 20.593 41.8963 20.5746 41.9895 20.5391C42.8029 20.2258 43.5413 19.6635 44.0158 19.2499C44.932 20.0202 46.7574 21.9117 46.3095 24.368V24.3753Z" fill="#16161E"/>
</svg>
