<svg width="50" height="50" viewBox="0 0 50 50" fill="none" xmlns="http://www.w3.org/2000/svg">
<path d="M25.0008 20.3196C25.8867 20.3196 26.6102 21.0412 26.6102 21.9271C26.6102 22.7355 27.2672 23.3906 28.0755 23.3906C28.8821 23.3906 29.5391 22.7355 29.5391 21.9271C29.5391 19.9413 28.2453 18.2655 26.4644 17.6528V16.8223C26.4644 16.0158 25.8092 15.3569 25.0008 15.3569C24.1906 15.3569 23.5355 16.0158 23.5355 16.8223V17.6528C21.7545 18.2655 20.4644 19.9413 20.4644 21.9271C20.4644 24.4315 22.4983 26.4654 25.0008 26.4654C25.8867 26.4654 26.6102 27.1888 26.6102 28.0747C26.6102 28.9624 25.8867 29.684 25.0008 29.684C24.115 29.684 23.3933 28.9624 23.3933 28.0747C23.3933 27.2663 22.7363 26.6093 21.928 26.6093C21.1178 26.6093 20.4644 27.2663 20.4644 28.0747C20.4644 30.0605 21.7545 31.7344 23.5355 32.3472V33.1777C23.5355 33.9879 24.1906 34.6449 25.0008 34.6449C25.8092 34.6449 26.4644 33.9879 26.4644 33.1777V32.3472C28.2453 31.7344 29.5391 30.0605 29.5391 28.0747C29.5391 25.5721 27.5034 23.5364 25.0008 23.5364C24.115 23.5364 23.3933 22.8148 23.3933 21.9271C23.3933 21.0412 24.115 20.3196 25.0008 20.3196ZM37.272 33.1334C37.9899 33.5117 38.8739 33.2367 39.2504 32.5243C40.4685 30.2229 41.1108 27.6207 41.1108 25C41.1108 16.1191 33.8817 8.8919 25.0008 8.8919C16.1181 8.8919 8.89091 16.1191 8.89091 25C8.89091 33.8827 16.1181 41.1099 25.0008 41.1099C27.5828 41.1099 30.1481 40.4861 32.42 39.3031C33.1379 38.9321 33.4166 38.0444 33.0438 37.3283C32.671 36.6141 31.787 36.3299 31.0672 36.7045C29.1866 37.6864 27.1435 38.1828 25.0008 38.1828C17.733 38.1828 11.818 32.2697 11.818 25C11.818 17.734 17.733 11.819 25.0008 11.819C32.2687 11.819 38.1837 17.734 38.1837 25C38.1837 27.1464 37.6559 29.2743 36.6629 31.1531C36.2828 31.8692 36.5559 32.755 37.272 33.1334ZM25.0008 3.0304C20.7579 3.0304 16.6386 4.24478 13.0896 6.53881C12.4086 6.97806 12.2148 7.88423 12.654 8.56339C13.0951 9.24256 13.9976 9.4345 14.6804 8.99895C17.7515 7.01312 21.3245 5.96115 25.0008 5.96115C35.5002 5.96115 44.0397 14.5024 44.0397 25C44.0397 35.4994 35.5002 44.0407 25.0008 44.0407C14.5014 44.0407 5.96016 35.4994 5.96016 25C5.96016 21.3587 6.99183 17.817 8.94628 14.7626C9.38183 14.0798 9.18251 13.1736 8.49965 12.7381C7.81864 12.3025 6.91247 12.5018 6.47876 13.1828C4.22348 16.7097 3.03125 20.7995 3.03125 25C3.03125 37.1161 12.8847 46.9696 25.0008 46.9696C37.1151 46.9696 46.9704 37.1161 46.9704 25C46.9704 12.8876 37.1151 3.0304 25.0008 3.0304Z" fill="black"/>
</svg>
