<svg width="50" height="50" viewBox="0 0 50 50" fill="none" xmlns="http://www.w3.org/2000/svg">
<path d="M21.92 5.466C23.5729 3.65114 26.4283 3.65114 28.0812 5.466L30.2067 7.79981C31.0419 8.71704 32.2425 9.21433 33.4819 9.15642L36.635 9.00906C39.0869 8.89446 41.1062 10.9137 40.9917 13.3657L40.8442 16.5189C40.7862 17.7581 41.2835 18.9587 42.2008 19.794L44.5346 21.9194C46.3496 23.5723 46.3496 26.4277 44.5346 28.0806L42.2008 30.206C41.2835 31.0413 40.7862 32.2419 40.8442 33.4812L40.9917 36.6344C41.1062 39.0862 39.0869 41.1056 36.635 40.991L33.4819 40.8435C32.2425 40.7856 31.0419 41.2829 30.2067 42.2002L28.0812 44.534C26.4283 46.349 23.5729 46.349 21.92 44.534L19.7946 42.2002C18.9593 41.2829 17.7587 40.7856 16.5195 40.8435L13.3663 40.991C10.9143 41.1056 8.89507 39.0862 9.00967 36.6344L9.15703 33.4812C9.21494 32.2419 8.71765 31.0413 7.80042 30.206L5.46661 28.0806C3.65176 26.4277 3.65176 23.5723 5.46661 21.9194L7.80042 19.794C8.71765 18.9587 9.21494 17.7581 9.15703 16.5189L9.00967 13.3657C8.89507 10.9137 10.9143 8.89446 13.3663 9.00906L16.5195 9.15642C17.7587 9.21433 18.9593 8.71704 19.7946 7.79981L21.92 5.466Z" stroke="black" stroke-width="2"/>
<path d="M18.75 25L22.9167 29.1667L31.25 20.8334" stroke="black" stroke-width="2" stroke-linecap="round" stroke-linejoin="round"/>
</svg>
