<svg width="24" height="24" viewBox="0 0 24 24" fill="none" xmlns="http://www.w3.org/2000/svg">
<path d="M12 0.5C18.3513 0.5 23.5 5.64873 23.5 12C23.5 18.3513 18.3513 23.5 12 23.5C5.64873 23.5 0.5 18.3513 0.5 12C0.5 5.64873 5.64873 0.5 12 0.5Z" fill="#F3F3F3" stroke="#313131"/>
<path d="M11.8291 7.71436C10.5317 7.71436 9.47021 8.98815 9.47021 10.5577C9.47021 12.1272 10.5317 13.4009 11.8291 13.4009C13.1265 13.4009 14.188 12.1272 14.188 10.5577C14.188 8.98815 13.1265 7.71436 11.8291 7.71436ZM9.36406 13.4009C8.11385 13.4578 7.11133 14.4473 7.11133 15.6756V16.8129H16.5469V15.6756C16.5469 14.4473 15.5561 13.4578 14.2941 13.4009C13.6572 14.0947 12.7844 14.5383 11.8291 14.5383C10.8737 14.5383 10.001 14.0947 9.36406 13.4009Z" fill="#313131"/>
</svg>
