<svg width="21" height="21" viewBox="0 0 21 21" fill="none" xmlns="http://www.w3.org/2000/svg">
<path d="M9.02344 0.025519C4.09828 0.025519 0.0917969 4.032 0.0917969 8.95716C0.0917969 13.8823 4.09828 17.8888 9.02344 17.8888C10.5291 17.8888 12.0092 17.5315 13.2596 16.8425C13.3597 16.9631 13.4708 17.0741 13.5913 17.1743L16.1432 19.7262C16.3789 19.9913 16.6662 20.2055 16.9876 20.3556C17.309 20.5056 17.6577 20.5884 18.0123 20.5989C18.3668 20.6093 18.7198 20.5472 19.0495 20.4163C19.3791 20.2854 19.6786 20.0884 19.9294 19.8376C20.1802 19.5868 20.3772 19.2874 20.5081 18.9577C20.639 18.628 20.7011 18.275 20.6907 17.9205C20.6802 17.5659 20.5974 17.2172 20.4474 16.8958C20.2973 16.5744 20.0831 16.2871 19.818 16.0514L17.2661 13.4995C17.1418 13.3752 17.0049 13.264 16.8578 13.1678C17.5468 11.9174 17.9806 10.4628 17.9806 8.93164C17.9806 4.00648 13.9741 0 9.04896 0L9.02344 0.025519ZM9.02344 2.57742C12.5706 2.57742 15.4032 5.41002 15.4032 8.95716C15.4032 10.6414 14.7907 12.1981 13.7189 13.3464C13.6934 13.3719 13.6679 13.3975 13.6424 13.423C13.5218 13.5231 13.4108 13.6342 13.3106 13.7547C12.1878 14.7755 10.6567 15.3624 8.99792 15.3624C5.45078 15.3624 2.61817 12.5298 2.61817 8.98268C2.61817 5.43554 5.45078 2.60293 8.99792 2.60293L9.02344 2.57742Z" fill="#8C8C8C"/>
</svg>
