<svg width="30" height="30" viewBox="0 0 30 30" fill="none" xmlns="http://www.w3.org/2000/svg">
<path fill-rule="evenodd" clip-rule="evenodd" d="M6.46539 15.0005C6.46539 14.0262 6.62711 13.092 6.91609 12.2159L1.86063 8.35547C0.875313 10.3559 0.320312 12.6101 0.320312 15.0005C0.320312 17.389 0.874844 19.6416 1.85852 21.6408L6.91117 17.7729C6.625 16.9008 6.46539 15.9701 6.46539 15.0005Z" fill="#FBBC05"/>
<path fill-rule="evenodd" clip-rule="evenodd" d="M15.3423 6.13641C17.459 6.13641 19.3708 6.88641 20.8729 8.11359L25.2426 3.75C22.5798 1.4318 19.1659 0 15.3423 0C9.40609 0 4.30422 3.39469 1.86133 8.355L6.91656 12.2154C8.08141 8.67961 11.4018 6.13641 15.3423 6.13641Z" fill="#EA4335"/>
<path fill-rule="evenodd" clip-rule="evenodd" d="M15.3423 23.8632C11.402 23.8632 8.08164 21.32 6.9168 17.7842L1.86133 21.6439C4.30422 26.6049 9.40609 29.9996 15.3423 29.9996C19.0061 29.9996 22.5041 28.6986 25.1294 26.2611L20.3308 22.5514C18.9768 23.4043 17.2717 23.8632 15.3423 23.8632Z" fill="#34A853"/>
<path fill-rule="evenodd" clip-rule="evenodd" d="M29.6802 14.9996C29.6802 14.1132 29.5435 13.1586 29.3387 12.2725H15.3418V18.0679H23.3987C22.9958 20.0439 21.8994 21.5629 20.3302 22.5514L25.1288 26.2611C27.8865 23.7018 29.6802 19.8889 29.6802 14.9996Z" fill="#4285F4"/>
</svg>
