<svg width="30" height="30" viewBox="0 0 30 30" fill="none" xmlns="http://www.w3.org/2000/svg">
<g clip-path="url(#clip0_1072_4001)">
<path d="M24.75 0H5.25C2.3505 0 0 2.3505 0 5.25V24.75C0 27.6495 2.3505 30 5.25 30H24.75C27.6495 30 30 27.6495 30 24.75V5.25C30 2.3505 27.6495 0 24.75 0Z" fill="#385997"/>
<path d="M25.5 13.875H20.8125V10.3125C20.8125 9.44062 21.8156 9.375 22.125 9.375H25.3125V4.5H22.125C18.5953 4.5 15.9375 6.99844 15.9375 10.3125V13.875H12V18.75H15.9375V30H20.8125V18.75H24.75L25.5 13.875Z" fill="white"/>
</g>
<defs>
<clipPath id="clip0_1072_4001">
<rect width="30" height="30" fill="white"/>
</clipPath>
</defs>
</svg>
